<svg width="18" height="18" viewBox="0 0 18 18" fill="none" xmlns="http://www.w3.org/2000/svg">
<mask id="path-1-inside-1_103_21" fill="white">
<path d="M17.0047 9.72089L17.9851 4.34628C18.0098 4.20767 18.0037 4.06534 17.9675 3.9293C17.9312 3.79327 17.8656 3.66682 17.7752 3.55885C17.6848 3.45089 17.5719 3.36402 17.4443 3.30436C17.3168 3.2447 17.1777 3.21369 17.0368 3.21352H4.33957L3.99401 1.31754C3.92797 0.948011 3.73396 0.613496 3.44598 0.372604C3.158 0.131712 2.79441 -0.000192315 2.41891 2.10457e-07H0.96435C0.708588 2.10457e-07 0.463302 0.10157 0.282451 0.282366C0.101601 0.463161 0 0.708372 0 0.964056C0 1.21974 0.101601 1.46495 0.282451 1.64575C0.463302 1.82654 0.708588 1.92811 0.96435 1.92811H2.14568L4.27528 13.6253C3.979 13.9261 3.76136 14.2952 3.64158 14.6999C3.52181 15.1047 3.50358 15.5328 3.5885 15.9463C3.67343 16.3597 3.8589 16.746 4.12854 17.0708C4.39817 17.3957 4.74368 17.6492 5.13454 17.8089C5.52539 17.9686 5.94958 18.0296 6.36963 17.9866C6.78968 17.9436 7.19268 17.7978 7.54302 17.5622C7.89336 17.3266 8.18028 17.0083 8.37842 16.6356C8.57657 16.2628 8.67985 15.847 8.67915 15.4249C8.67721 15.2083 8.65025 14.9926 8.59878 14.7822H11.974C11.9225 14.9926 11.8956 15.2083 11.8936 15.4249C11.8936 15.9333 12.0445 16.4304 12.327 16.8532C12.6096 17.2759 13.0112 17.6054 13.4811 17.8C13.951 17.9946 14.4681 18.0455 14.9669 17.9463C15.4658 17.8471 15.924 17.6023 16.2836 17.2427C16.6433 16.8832 16.8882 16.4251 16.9874 15.9264C17.0867 15.4277 17.0357 14.9108 16.8411 14.4411C16.6465 13.9713 16.3168 13.5698 15.8939 13.2873C15.471 13.0049 14.9739 12.8541 14.4652 12.8541H6.09147L5.85842 11.5687H14.7947C15.3211 11.5677 15.8305 11.3823 16.2343 11.0447C16.6381 10.7071 16.9107 10.2387 17.0047 9.72089ZM6.75045 15.4249C6.75045 15.552 6.71274 15.6763 6.6421 15.782C6.57146 15.8876 6.47105 15.97 6.35357 16.0187C6.2361 16.0673 6.10683 16.08 5.98212 16.0552C5.85741 16.0304 5.74286 15.9692 5.65295 15.8793C5.56304 15.7895 5.50181 15.6749 5.477 15.5503C5.45219 15.4256 5.46493 15.2964 5.51359 15.1789C5.56224 15.0615 5.64465 14.9611 5.75037 14.8905C5.8561 14.8199 5.98039 14.7822 6.10755 14.7822C6.27805 14.7822 6.44158 14.8499 6.56215 14.9704C6.68271 15.091 6.75045 15.2544 6.75045 15.4249ZM14.4652 16.0676C14.3381 16.0676 14.2138 16.0299 14.1081 15.9593C14.0023 15.8887 13.9199 15.7883 13.8713 15.6708C13.8226 15.5534 13.8099 15.4242 13.8347 15.2995C13.8595 15.1748 13.9207 15.0603 14.0106 14.9704C14.1006 14.8805 14.2151 14.8193 14.3398 14.7945C14.4645 14.7697 14.5938 14.7825 14.7113 14.8311C14.8287 14.8798 14.9292 14.9621 14.9998 15.0678C15.0704 15.1735 15.1081 15.2978 15.1081 15.4249C15.1081 15.5953 15.0404 15.7588 14.9198 15.8793C14.7993 15.9999 14.6358 16.0676 14.4652 16.0676ZM4.69317 5.14163H15.8796L15.1081 9.37544C15.095 9.44923 15.0565 9.51612 14.9993 9.56453C14.9421 9.61295 14.8697 9.63984 14.7947 9.64056H5.51286L4.69317 5.14163Z"/>
</mask>
<path d="M17.0047 9.72089L0.280675 6.67014L0.279383 6.67723L0.278097 6.68431L17.0047 9.72089ZM17.9851 4.34628L34.7091 7.39704L34.716 7.35962L34.7226 7.32218L17.9851 4.34628ZM17.0368 3.21352L17.0578 -13.7865L17.0473 -13.7865H17.0368V3.21352ZM4.33957 3.21352L-12.3849 6.26171L-9.84207 20.2135H4.33957V3.21352ZM3.99401 1.31754L-12.7408 4.30837L-12.7357 4.33706L-12.7305 4.36573L3.99401 1.31754ZM2.41891 2.10457e-07L2.41891 17L2.42763 17L2.41891 2.10457e-07ZM0.96435 2.10457e-07L0.96435 -17L0.96435 2.10457e-07ZM0 0.964056L-17 0.964056L0 0.964056ZM0.96435 1.92811V18.9281V1.92811ZM2.14568 1.92811L18.8708 -1.11687L16.3301 -15.0719H2.14568V1.92811ZM4.27528 13.6253L16.386 25.5556L22.5817 19.2661L21.0004 10.5803L4.27528 13.6253ZM8.67915 15.4249L25.6791 15.3965L25.679 15.3348L25.6785 15.2731L8.67915 15.4249ZM8.59878 14.7822V-2.21781H-13.0598L-7.91454 18.8208L8.59878 14.7822ZM11.974 14.7822L28.4873 18.8208L33.6326 -2.21781L11.974 -2.21781V14.7822ZM11.8936 15.4249L-5.10568 15.2731L-5.10636 15.349V15.4249L11.8936 15.4249ZM6.09147 12.8541L-10.6358 15.8868L-8.10348 29.8541H6.09147V12.8541ZM5.85842 11.5687V-5.43133H-14.5009L-10.8689 14.6014L5.85842 11.5687ZM14.7947 11.5687V28.5687H14.8099L14.8251 28.5686L14.7947 11.5687ZM14.1081 15.9593L4.66536 30.0956L14.1081 15.9593ZM4.69317 5.14163V-11.8584H-15.6841L-12.0315 8.18884L4.69317 5.14163ZM15.8796 5.14163L32.6042 8.18917L36.2573 -11.8584H15.8796V5.14163ZM15.1081 9.37544L-1.61647 6.3279L-1.62306 6.36411L-1.6295 6.40034L15.1081 9.37544ZM14.7947 9.64056V26.6406H14.8761L14.9575 26.6398L14.7947 9.64056ZM5.51286 9.64056L-11.2118 12.6878L-8.66963 26.6406H5.51286V9.64056ZM33.7287 12.7716L34.7091 7.39704L1.2611 1.29553L0.280675 6.67014L33.7287 12.7716ZM34.7226 7.32218C35.182 4.73856 35.0697 2.08568 34.3938 -0.449875L1.54119 8.30848C0.937756 6.045 0.837543 3.67678 1.24761 1.37039L34.7226 7.32218ZM34.3938 -0.449875C33.7178 -2.98548 32.4946 -5.34185 30.8106 -7.3535L4.73983 14.4712C3.23658 12.6755 2.14464 10.572 1.54119 8.30848L34.3938 -0.449875ZM30.8106 -7.3535C29.1265 -9.36517 27.0225 -10.9833 24.6466 -12.0946L10.242 18.7033C8.12126 17.7114 6.24311 16.2669 4.73983 14.4712L30.8106 -7.3535ZM24.6466 -12.0946C22.2707 -13.2058 19.6804 -13.7832 17.0578 -13.7865L17.0159 20.2135C14.6749 20.2106 12.3628 19.6952 10.242 18.7033L24.6466 -12.0946ZM17.0368 -13.7865H4.33957V20.2135H17.0368V-13.7865ZM21.0641 0.165332L20.7185 -1.73064L-12.7305 4.36573L-12.3849 6.26171L21.0641 0.165332ZM20.7289 -1.67329C19.9603 -5.97348 17.7029 -9.86513 14.3533 -12.667L-7.46135 13.4122C-10.2349 11.0921 -12.1044 7.8695 -12.7408 4.30837L20.7289 -1.67329ZM14.3533 -12.667C11.0039 -15.4687 6.77588 -17.0022 2.41019 -17L2.42763 17C-1.18707 17.0019 -4.68787 15.7321 -7.46135 13.4122L14.3533 -12.667ZM2.41891 -17H0.96435V17H2.41891V-17ZM0.96435 -17C-3.79842 -17 -8.36716 -15.1086 -11.7365 -11.7403L12.3014 12.305C9.29377 15.3118 5.2156 17 0.96435 17L0.96435 -17ZM-11.7365 -11.7403C-15.1061 -8.37177 -17 -3.80198 -17 0.964056L17 0.964056C17 5.21873 15.3093 9.29809 12.3014 12.305L-11.7365 -11.7403ZM-17 0.964056C-17 5.73009 -15.1061 10.2999 -11.7365 13.6684L12.3014 -10.3769C15.3093 -7.36998 17 -3.29061 17 0.964056L-17 0.964056ZM-11.7365 13.6684C-8.36716 17.0367 -3.79841 18.9281 0.96435 18.9281L0.96435 -15.0719C5.21559 -15.0719 9.29376 -13.3837 12.3014 -10.3769L-11.7365 13.6684ZM0.96435 18.9281H2.14568V-15.0719H0.96435V18.9281ZM-14.5794 4.97309L-12.4498 16.6703L21.0004 10.5803L18.8708 -1.11687L-14.5794 4.97309ZM-7.83542 1.69507C-10.0906 3.9844 -11.7477 6.7941 -12.6597 9.87627L19.9429 19.5236C19.2704 21.7962 18.0486 23.8678 16.386 25.5556L-7.83542 1.69507ZM-12.6597 9.87627C-13.5717 12.9584 -13.7106 16.2178 -13.0639 19.3665L20.2409 12.526C20.7177 14.8477 20.6154 17.251 19.9429 19.5236L-12.6597 9.87627ZM-13.0639 19.3665C-12.4172 22.5151 -11.005 25.4556 -8.95244 27.9284L17.2095 6.2132C18.7228 8.03637 19.7641 10.2044 20.2409 12.526L-13.0639 19.3665ZM-8.95244 27.9284C-6.89991 30.4013 -4.27027 32.3303 -1.29607 33.5457L11.5651 2.07206C13.7576 2.96798 15.6963 4.39006 17.2095 6.2132L-8.95244 27.9284ZM-1.29607 33.5457C1.67813 34.761 4.90567 35.2255 8.10164 34.8982L4.63762 1.07507C6.99349 0.833796 9.37266 1.17613 11.5651 2.07206L-1.29607 33.5457ZM8.10164 34.8982C11.2976 34.5708 14.3642 33.4618 17.0305 31.6685L-1.94441 3.45587C0.0211694 2.13389 2.28173 1.31635 4.63762 1.07507L8.10164 34.8982ZM17.0305 31.6685C19.6967 29.8753 21.8808 27.4529 23.3894 24.6149L-6.63257 8.65622C-5.52029 6.56376 -3.91002 4.77787 -1.94441 3.45587L17.0305 31.6685ZM23.3894 24.6149C24.898 21.7769 25.6845 18.6109 25.6791 15.3965L-8.32083 15.4533C-8.32479 13.0831 -7.74487 10.7487 -6.63257 8.65622L23.3894 24.6149ZM25.6785 15.2731C25.6648 13.7465 25.4748 12.2266 25.1121 10.7436L-7.91454 18.8208C-8.1743 17.7587 -8.31042 16.6701 -8.32018 15.5766L25.6785 15.2731ZM8.59878 31.7822H11.974V-2.21781H8.59878V31.7822ZM-4.53932 10.7436C-4.902 12.2266 -5.09205 13.7465 -5.10568 15.2731L28.893 15.5766C28.8832 16.6701 28.7471 17.7587 28.4873 18.8208L-4.53932 10.7436ZM-5.10636 15.4249C-5.10636 19.2968 -3.95783 23.0813 -1.80662 26.2998L26.4607 7.40647C28.0468 9.77947 28.8936 12.5699 28.8936 15.4249L-5.10636 15.4249ZM-1.80662 26.2998C0.344554 29.5183 3.40155 32.026 6.97721 33.5067L19.9851 2.09336C22.6209 3.18484 24.8747 5.03354 26.4607 7.40647L-1.80662 26.2998ZM6.97721 33.5067C10.5528 34.9873 14.487 35.3746 18.2825 34.6198L11.6514 1.27276C14.4492 0.716413 17.3493 1.00191 19.9851 2.09336L6.97721 33.5067ZM18.2825 34.6198C22.078 33.8651 25.5652 32.002 28.3026 29.2654L4.26465 5.22008C6.28282 3.20253 8.85351 1.82912 11.6514 1.27276L18.2825 34.6198ZM28.3026 29.2654C31.0401 26.5287 32.905 23.0413 33.6606 19.2439L0.314273 12.6089C0.871398 9.80892 2.24643 7.23769 4.26465 5.22008L28.3026 29.2654ZM33.6606 19.2439C34.4162 15.4465 34.0283 11.5105 32.5463 7.93377L1.13584 20.9484C0.0431313 18.3112 -0.242853 15.4089 0.314273 12.6089L33.6606 19.2439ZM32.5463 7.93377C31.0644 4.35708 28.5551 1.30087 25.3366 -0.848979L6.45124 27.4236C4.07858 25.8388 2.22853 23.5856 1.13584 20.9484L32.5463 7.93377ZM25.3366 -0.848979C22.1183 -2.99878 18.335 -4.14593 14.4652 -4.14593V29.8541C11.6127 29.8541 8.82384 29.0085 6.45124 27.4236L25.3366 -0.848979ZM14.4652 -4.14593H6.09147V29.8541H14.4652V-4.14593ZM22.8188 9.82133L22.5857 8.53592L-10.8689 14.6014L-10.6358 15.8868L22.8188 9.82133ZM5.85842 28.5687H14.7947V-5.43133H5.85842V28.5687ZM14.8251 28.5686C19.327 28.5606 23.6843 26.975 27.1388 24.0867L5.32983 -1.99722C7.97678 -4.21036 11.3153 -5.42515 14.7644 -5.43131L14.8251 28.5686ZM27.1388 24.0867C30.5934 21.1982 32.9267 17.1895 33.7313 12.7575L0.278097 6.68431C0.894704 3.28782 2.68277 0.216006 5.32983 -1.99722L27.1388 24.0867ZM-10.2496 15.4249C-10.2496 12.1886 -9.28956 9.02535 -7.49155 6.33527L20.7758 25.2286C22.715 22.3272 23.7504 18.9154 23.7504 15.4249H-10.2496ZM-7.49155 6.33527C-5.6936 3.64526 -3.13863 1.54943 -0.150351 0.312017L12.8575 31.7253C16.0807 30.3906 18.8365 28.13 20.7758 25.2286L-7.49155 6.33527ZM-0.150351 0.312017C2.83788 -0.925371 6.12574 -1.24905 9.29769 -0.6183L2.66656 32.7288C6.08792 33.4091 9.63432 33.06 12.8575 31.7253L-0.150351 0.312017ZM9.29769 -0.6183C12.4696 0.0124468 15.384 1.56946 17.6719 3.8567L-6.36603 27.902C-3.89827 30.369 -0.754804 32.0484 2.66656 32.7288L9.29769 -0.6183ZM17.6719 3.8567C19.9599 6.14396 21.5186 9.05875 22.1502 12.2328L-11.1962 18.8678C-10.515 22.2911 -8.83381 25.435 -6.36603 27.902L17.6719 3.8567ZM22.1502 12.2328C22.7817 15.4068 22.4575 18.6967 21.2188 21.6862L-10.1917 8.67163C-11.5277 11.8961 -11.8773 15.4444 -11.1962 18.8678L22.1502 12.2328ZM21.2188 21.6862C19.9802 24.6757 17.883 27.23 15.1931 29.0268L-3.69233 0.754186C-6.59368 2.69221 -8.85571 5.44732 -10.1917 8.67163L21.2188 21.6862ZM15.1931 29.0268C12.5032 30.8235 9.34147 31.7822 6.10755 31.7822V-2.21781C2.61932 -2.21781 -0.791059 -1.18379 -3.69233 0.754186L15.1931 29.0268ZM6.10755 31.7822C1.77108 31.7822 -2.38887 30.0601 -5.45684 26.9931L18.5811 2.94778C15.272 -0.360315 10.785 -2.21781 6.10755 -2.21781V31.7822ZM-5.45684 26.9931C-8.52497 23.9259 -10.2496 19.7648 -10.2496 15.4249H23.7504C23.7504 10.7441 21.8904 6.25603 18.5811 2.94778L-5.45684 26.9931ZM14.4652 -0.932407C17.6992 -0.932407 20.8609 0.0262294 23.5508 1.82296L4.66536 30.0956C7.56664 32.0336 10.977 33.0676 14.4652 33.0676V-0.932407ZM23.5508 1.82296C26.2407 3.61975 28.3379 6.1741 29.5765 9.16353L-1.83397 22.1782C-0.498011 25.4025 1.76402 28.1576 4.66536 30.0956L23.5508 1.82296ZM29.5765 9.16353C30.8152 12.1531 31.1394 15.443 30.5079 18.617L-2.83846 11.982C-3.51962 15.4054 -3.16998 18.9537 -1.83397 22.1782L29.5765 9.16353ZM30.5079 18.617C29.8763 21.791 28.3176 24.7058 26.0296 26.9931L1.99166 2.94778C-0.476154 5.41484 -2.15731 8.55868 -2.83846 11.982L30.5079 18.617ZM26.0296 26.9931C23.7417 29.2803 20.8273 30.8373 17.6554 31.4681L11.0243 -1.87901C7.60289 -1.19866 4.45942 0.480773 1.99166 2.94778L26.0296 26.9931ZM17.6554 31.4681C14.4834 32.0988 11.1956 31.7751 8.20734 30.5378L21.2152 -0.875545C17.992 -2.21022 14.4456 -2.55935 11.0243 -1.87901L17.6554 31.4681ZM8.20734 30.5378C5.21913 29.3004 2.66414 27.2046 0.866142 24.5145L29.1334 5.62114C27.1942 2.71968 24.4384 0.459126 21.2152 -0.875545L8.20734 30.5378ZM0.866142 24.5145C-0.93189 21.8244 -1.89186 18.6612 -1.89186 15.4249H32.1081C32.1081 11.9344 31.0728 8.52265 29.1334 5.62114L0.866142 24.5145ZM-1.89186 15.4249C-1.89186 11.085 -0.167298 6.92392 2.90086 3.8567L26.9388 27.902C30.2481 24.5937 32.1081 20.1057 32.1081 15.4249H-1.89186ZM2.90086 3.8567C5.96884 0.789654 10.1288 -0.932407 14.4652 -0.932407V33.0676C19.1427 33.0676 23.6297 31.2101 26.9388 27.902L2.90086 3.8567ZM4.69317 22.1416H15.8796V-11.8584H4.69317V22.1416ZM-0.844985 2.09409L-1.61647 6.3279L31.8328 12.423L32.6042 8.18917L-0.844985 2.09409ZM-1.6295 6.40034C-0.94851 2.56914 1.05044 -0.90256 4.02022 -3.41468L25.9784 22.5438C29.0626 19.9348 31.1386 16.3293 31.8458 12.3505L-1.6295 6.40034ZM4.02022 -3.41468C6.98984 -5.92667 10.7436 -7.32144 14.632 -7.35867L14.9575 26.6398C18.9958 26.6011 22.8943 25.1526 25.9784 22.5438L4.02022 -3.41468ZM14.7947 -7.35944H5.51286V26.6406H14.7947V-7.35944ZM22.2375 6.59335L21.4178 2.09442L-12.0315 8.18884L-11.2118 12.6878L22.2375 6.59335Z" fill="#3D565C" mask="url(#path-1-inside-1_103_21)"/>
</svg>
