<svg width="64" height="43" viewBox="0 0 64 43" fill="none" xmlns="http://www.w3.org/2000/svg">
<g clip-path="url(#clip0_140_117)">
<path d="M-0.472903 26.5444C-2.98145 26.9292 -5.49886 26.759 -7.7843 26.839L-5.04305 26.7409C-6.41687 26.7847 -7.56425 26.588 -8.92962 26.1169C-8.48313 25.6253 -7.60556 26.0622 -7.35905 25.3726C-4.03025 25.4484 -0.72832 26.3616 2.5127 27.1163C1.18366 28.7023 0.434206 26.4891 -0.479302 26.534L-0.472903 26.5444Z" fill="#4CA0B2"/>
<path d="M21.391 19.6336C21.7624 19.5245 22.1422 19.4172 22.4985 19.3773C22.1367 19.5611 21.7574 19.5869 21.391 19.6336Z" fill="#4CA0B2"/>
<path d="M3.95881 22.8091C4.16064 22.681 4.36318 22.5894 4.56383 22.5064C6.0803 22.6842 7.61336 22.8656 9.1822 23.082C7.47833 22.9267 5.6507 23.6147 3.96071 22.8005L3.95881 22.8091Z" fill="#4CA0B2"/>
<path d="M2.34923 21.3502C0.804605 21.4201 -0.753584 21.1153 -2.19599 20.4007C-0.754557 20.961 0.776146 21.2326 2.34923 21.3502Z" fill="#4CA0B2"/>
<path d="M32.3846 10.8065C32.3696 10.6763 32.3923 10.5725 32.4298 10.4809C32.4724 10.4449 32.5124 10.3811 32.5378 10.3051L34.3907 10.6925C34.2417 10.7778 34.123 11.042 33.9707 11.063C33.2907 10.9142 33.1078 10.3211 32.3846 10.8065Z" fill="#4CA0B2"/>
<path d="M20.9747 19.7061L20.941 19.7804L20.5575 19.905C20.5575 19.905 20.5281 19.8804 20.5134 19.8681C20.6688 19.7933 20.8186 19.7445 20.9728 19.7148L20.9747 19.7061Z" fill="#4CA0B2"/>
<path d="M31.6151 10.792C31.5916 10.542 31.5598 10.2903 31.4982 10.0954L32.5385 10.305C32.5003 10.3601 32.4622 10.4152 32.4388 10.4826C32.2218 10.68 31.8541 10.4544 31.6151 10.792Z" fill="#4CA0B2"/>
<path d="M23.7515 9.36092C23.5374 9.38658 23.3619 9.91031 23.2634 10.0429C22.6876 9.73553 22.1119 9.42817 21.4357 9.26203C21.3372 9.3946 21.123 9.42026 20.9241 9.69405C20.7942 9.49336 20.6568 9.32727 20.5156 9.17849C21.9787 9.16328 23.4719 9.20905 25.0213 9.27619C24.6077 9.33979 24.1896 9.38426 23.7515 9.36092Z" fill="#4CA0B2"/>
<path d="M59.7974 12.5271C57.8747 13.2124 55.4347 12.2521 53.6709 13.8789C56.0304 14.4135 59.1921 14.1807 59.8247 16.3321C60.4529 18.4643 56.7323 17.0424 54.9664 17.4084C55.141 17.5373 55.3176 17.6696 55.4964 17.8055C55.2346 17.6122 54.9664 17.4084 54.7904 17.6963C55.3205 18.0934 56.2966 18.3977 56.6442 19.0722L56.2904 19.6566C57.7083 21.1185 60.0321 21.1013 61.4768 22.5599C54.8306 18.2672 46.9603 21.631 39.7223 22.8212C35.7389 23.9893 32.1015 26.2759 28.6412 28.7463C27.977 29.0814 26.3537 29.0344 25.1836 28.9415C23.1458 29.4384 21.1016 29.9248 19.0833 30.8884C14.7537 32.0896 10.5186 30.954 5.89328 31.2835C4.96769 31.3438 3.73826 29.1797 6.00844 28.5342C7.89007 27.7583 9.77913 27.4646 11.6789 27.3999C11.4591 28.0862 10.5581 27.7167 10.1327 28.2311C11.5336 28.6193 12.6942 28.7555 14.0666 28.6388L11.32 28.8808C13.6134 28.6847 16.1465 28.7042 18.6483 28.191C19.563 28.1011 20.4309 30.2495 21.6846 28.6108C18.3873 28.0341 15.0188 27.3059 11.677 27.4086C11.6808 27.3912 11.6846 27.3739 11.6883 27.3566C10.1968 27.5016 8.8431 27.4139 7.40555 27.4709C7.85353 27.3695 8.30908 27.2335 8.70141 27.3466C6.61156 26.7713 4.55329 26.6472 2.48672 26.5212C8.3318 24.192 14.7754 25.6387 20.6517 24.4769C18.9714 23.42 16.817 25.1245 15.356 23.7802C18.0392 23.6693 20.7362 23.7338 23.5092 23.8874C23.3067 23.9791 23.1105 24.0812 22.9151 24.2198C24.6591 24.9461 26.4597 24.1434 28.1825 24.2122L28.6436 24.2496C28.4924 24.2256 28.3375 24.2189 28.1825 24.2122C26.5966 24.0736 25.0446 23.9787 23.5175 23.8892C24.2074 23.5959 24.9512 23.5321 25.8382 23.6084C25.3425 23.1735 24.6377 23.0192 23.945 22.8494C23.039 22.8597 22.1312 22.8786 21.2329 22.8542C22.6192 22.7134 23.9802 22.3313 25.2061 21.6929C23.3086 21.3501 21.3776 21.3989 19.4837 21.2383L22.5737 20.8175C24.3145 20.9628 26.0686 21.0475 27.8442 21.0735L27.6409 21.1288L28.0444 21.072C28.738 21.0788 29.4355 21.0682 30.1367 21.0404C30.7645 20.9511 31.3586 20.6188 31.9494 20.2222L32.2624 20.1819C32.0812 20.4142 31.9969 20.6406 32.3783 20.7241C34.0358 21.2501 35.7072 19.9658 37.6118 20.6728C38.1172 20.865 38.7613 20.6615 39.4499 20.4133C39.653 20.5574 39.7477 20.4422 39.829 20.2696L40.2819 20.1058C40.6522 20.0417 41.0289 19.9882 41.3842 19.794C41.0222 19.8598 40.6489 19.9775 40.2819 20.1058C40.1379 20.1286 40.0021 20.1533 39.8626 20.1953C39.9393 20.0036 40.0255 19.7686 40.2333 19.7324C37.6413 19.8632 34.9496 19.8543 32.2624 20.1819C32.4175 19.9892 32.6326 19.8005 32.7209 19.6748C32.4625 19.863 32.2124 20.0531 31.9577 20.224C31.0909 20.3335 30.2248 20.4794 29.3639 20.6808C29.6129 20.5358 29.8483 20.3335 30.0473 20.0597C27.5635 20.1326 25.081 20.4778 22.5902 20.8211C20.238 20.6508 17.911 20.4044 15.5945 20.2691C16.8467 20.8605 18.1644 21.1127 19.492 21.2401C15.9648 21.6739 12.4098 21.9566 8.88476 21.3482C9.51931 20.5532 10.3979 19.993 10.7903 18.9546C10.7682 18.4601 9.63811 18.3034 10.2948 18.0029C12.6728 16.5469 14.3994 17.7499 15.324 14.9149C15.4888 14.1621 12.8201 11.547 13.6674 10.9708C14.3765 10.709 15.6401 10.4143 17.002 10.1866C17.3974 10.2459 17.8106 10.2638 18.2358 10.2662C18.2863 10.3136 18.3739 10.1514 18.4819 9.97557C19.9626 9.80098 21.3681 9.69156 22.1571 9.81891C22.4511 9.86513 22.7368 9.90954 23.0308 9.95576C23.1905 10.0995 23.3222 10.2916 23.4325 10.5424C23.608 10.336 23.7785 10.192 23.96 10.0775C24.7316 10.1648 25.5006 10.2244 26.2587 10.2543C26.6902 10.4666 27.1223 10.7153 27.5447 10.8894C27.531 10.7141 27.4521 10.4792 27.5167 10.303C28.4667 10.3296 29.4115 10.3006 30.348 10.2699C30.7399 10.4645 31.1071 10.7715 31.446 11.2084C32.3758 9.5804 34.7765 10.3235 36.3976 9.9439L36.3924 9.88836C37.2128 9.83219 38.0415 9.77785 38.8803 9.71666C39.0318 9.8586 39.1794 10.0178 39.3194 10.2117C39.5037 9.92563 39.7197 9.89132 39.8119 9.74829C40.4956 9.87981 41.0853 10.163 41.6852 10.4394C41.7773 10.2964 41.9279 9.76719 42.1459 9.72422C42.5896 9.72161 43.0115 9.65983 43.4225 9.56846C43.9096 9.56627 44.4114 9.57637 44.9132 9.58646C46.6073 9.66715 48.2901 9.79974 49.9686 10.0311C50.0404 10.2191 50.0805 10.4727 50.1225 10.7176C50.3385 10.366 50.7266 10.5779 50.9308 10.3596C50.8933 10.4512 50.8872 10.5586 50.904 10.6802C51.6016 10.1529 51.8114 10.7428 52.5091 10.8502C52.655 10.8186 52.7737 10.5545 52.908 10.4569L53.1319 10.5059C54.0285 11.491 54.7415 11.0124 55.588 10.9166L58.2201 11.3567C58.9197 11.4555 59.2756 12.1318 59.7974 12.5271Z" fill="#4CA0B2"/>
<path d="M34.6152 10.7417L37.0308 11.2976C36.1792 11.3379 35.4469 11.7851 34.6152 10.7417Z" fill="#4CA0B2"/>
<path d="M13.0674 10.2591C12.7508 9.79991 12.4039 9.47918 12.0177 9.25865C14.0146 9.30586 16.0075 9.25246 18.0335 9.20632L18.0387 9.26186C16.4181 9.55994 14.0643 8.68205 13.0591 10.2573L13.0674 10.2591Z" fill="#4CA0B2"/>
<path d="M32.4306 10.4813C32.4626 10.4157 32.4926 10.3588 32.5311 10.3038C32.5057 10.3798 32.4653 10.4435 32.4222 10.4794L32.4306 10.4813Z" fill="#4CA0B2"/>
<path d="M9.20934 19.9413L9.01294 19.9255C9.51824 19.8004 10.0179 19.7012 10.522 19.6211C10.1214 19.8236 9.67083 19.8972 9.20934 19.9413Z" fill="#4CA0B2"/>
<path d="M3.78826 19.3805C2.76199 19.4642 1.73004 19.5738 0.699269 19.6383C-0.619629 19.4312 -1.90751 19.1221 -3.12603 18.4564C-0.834147 18.7042 1.4625 19.0891 3.78826 19.3805Z" fill="#4CA0B2"/>
<path d="M9.20411 9.72229C8.79565 9.52408 8.37557 9.25986 7.9581 9.02342C8.37577 9.06044 8.79345 9.09746 9.21112 9.13448C9.12989 9.30711 9.19863 9.54882 9.20411 9.72229Z" fill="#4CA0B2"/>
<path d="M13.4298 19.2788L13.1207 19.3018C13.3817 19.1413 13.6465 18.9635 13.9095 18.7944C13.8128 18.9183 13.5914 19.0965 13.4298 19.2788Z" fill="#4CA0B2"/>
<path d="M4.77069 8.54305C5.07939 8.60155 5.37979 8.65824 5.68849 8.71674C5.50893 8.82251 5.3218 8.96288 5.13989 9.1588C5.03987 8.90117 4.9183 8.70229 4.76879 8.5517L4.77069 8.54305Z" fill="#4CA0B2"/>
<path d="M0.00581881 8.59761C-0.415643 8.57789 -0.82313 8.53403 -1.21475 8.45738C-0.724598 8.40146 -0.228048 8.35602 0.258317 8.3174C0.142024 8.49142 0.0461016 8.65176 -0.00247344 8.59579L0.00581881 8.59761Z" fill="#4CA0B2"/>
</g>
<defs>
<clipPath id="clip0_140_117">
<rect width="58.5001" height="31" fill="white" transform="translate(6.79395 0.100586) rotate(12.3465)"/>
</clipPath>
</defs>
</svg>
