<?xml version="1.0" encoding="UTF-8"?>
<svg id="Layer_2" data-name="Layer 2" xmlns="http://www.w3.org/2000/svg" viewBox="0 0 85.67 34.63">
  <defs>
    <style>
      .cls-1 {
        fill: #29abe2;
      }
    </style>
  </defs>
  <g id="Layer_1-2" data-name="Layer 1">
    <g>
      <path class="cls-1" d="m15.38,30.92c-2.79,1.03-5.73,1.45-8.34,2.09l3.13-.77c-1.57.38-2.94.44-4.63.25.39-.65,1.51-.38,1.62-1.2,3.85-.72,7.88-.51,11.8-.46-1.13,2.07-2.55-.19-3.59.08Z"/>
      <path class="cls-1" d="m1.11,32.37c.38-.09.76-.17,1.13-.23-.38.15-.77.27-1.13.23Z"/>
      <path class="cls-1" d="m38.8,18.02c.4-.21.81-.42,1.21-.55-.37.29-.8.41-1.21.55Z"/>
      <path class="cls-1" d="m19.54,25.73c.2-.19.41-.34.62-.48,1.79-.17,3.6-.34,5.46-.48-2,.24-3.93,1.44-6.08.95Z"/>
      <path class="cls-1" d="m17.32,24.51c-1.76.45-3.63.49-5.47.05,1.8.27,3.63.2,5.47-.05Z"/>
      <path class="cls-1" d="m49.23,5.63c-.05-.14-.05-.26-.03-.37.04-.05.07-.13.08-.22l2.23-.02c-.15.13-.22.45-.39.51-.82,0-1.18-.61-1.89.1Z"/>
      <path class="cls-1" d="m38.34,18.2l-.02.09-.41.23s-.04-.02-.06-.03c.16-.12.32-.21.49-.28Z"/>
      <path class="cls-1" d="m48.34,5.8c-.09-.27-.19-.54-.31-.74l1.25-.02c-.03.07-.06.14-.07.22-.2.27-.68.11-.87.54Z"/>
      <path class="cls-1" d="m38.93,6.12c-.24.08-.31.7-.39.87-.74-.2-1.48-.4-2.3-.42-.08.17-.32.25-.48.6-.2-.19-.4-.34-.6-.47,1.68-.37,3.41-.68,5.21-.98-.46.17-.93.32-1.44.4Z"/>
      <path class="cls-1" d="m81.21.91c-2.04,1.22-5.09.75-6.71,2.97,2.85.02,6.43-1,7.7,1.22,1.26,2.2-3.38,1.53-5.32,2.36q.35.15.71.31c-.35-.15-.71-.31-.84.05.71.31,1.91.41,2.48,1.07l-.26.73c2,1.27,4.67.69,6.7,1.95-8.73-3.13-16.94,2.48-24.97,5.54-4.29,2.25-7.9,5.65-11.26,9.21-.68.53-2.56.87-3.93,1.05-2.22,1.04-4.45,2.07-6.53,3.62-4.68,2.37-9.84,2.14-15.08,3.62-1.05.29-3.01-1.8-.56-3.06,1.97-1.31,4.07-2.09,6.24-2.62-.08.81-1.21.62-1.57,1.29,1.71.09,3.08-.04,4.63-.5l-3.1.93c2.59-.77,5.51-1.36,8.26-2.53,1.03-.32,2.57,1.84,3.6-.27-3.94.16-8,.17-11.82,1.09,0-.02,0-.04,0-.06-1.68.52-3.26.75-4.9,1.16.49-.22.98-.48,1.46-.45-2.55-.13-4.95.23-7.36.59,6.14-3.98,13.92-3.94,20.39-6.64-2.2-.76-4.25,1.64-6.27.51,3.06-.77,6.18-1.35,9.41-1.85-.21.15-.41.31-.6.51,2.19.38,4.06-.94,6.06-1.28l.54-.07c-.18.01-.36.04-.54.07-1.86.23-3.67.5-5.45.77.72-.49,1.56-.74,2.6-.87-.68-.36-1.53-.36-2.37-.38-1.04.23-2.08.47-3.12.66,1.56-.49,3.03-1.24,4.28-2.24-2.27.08-4.48.6-6.7.88l3.45-1.21c2.04-.26,4.08-.59,6.13-.99l-.22.11.45-.16c.8-.16,1.6-.34,2.4-.54.7-.25,1.3-.76,1.88-1.34l.35-.12c-.15.3-.19.57.27.57,2.04.18,3.64-1.64,6.01-1.32.63.09,1.32-.29,2.05-.73.27.11.35-.04.4-.25l.48-.29c.41-.16.83-.31,1.19-.61-.4.16-.8.38-1.19.61-.16.06-.31.12-.46.2.04-.23.08-.51.31-.6-2.95.77-6.05,1.41-9.06,2.42.13-.25.33-.51.4-.67-.25.27-.49.54-.74.79-.97.33-1.93.7-2.87,1.13.25-.22.47-.5.63-.85-2.84.68-5.61,1.66-8.39,2.64-2.75.38-5.49.67-8.19,1.08,1.59.35,3.17.31,4.73.13-3.95,1.33-7.97,2.5-12.18,2.68.53-1.03,1.4-1.86,1.59-3.1-.15-.54-1.49-.44-.81-.93,2.37-2.18,4.66-1.27,5.01-4.62,0-.87-3.73-3.11-2.9-3.95.75-.46,2.13-1.09,3.64-1.67.47-.03.95-.11,1.44-.21.07.04.13-.16.21-.38,1.66-.55,3.25-1.01,4.19-1.06.35-.02.69-.04,1.04-.06.22.12.42.3.61.55.15-.27.31-.47.49-.64.91-.09,1.81-.21,2.69-.36.55.13,1.11.3,1.64.39-.06-.19-.21-.43-.18-.64,1.1-.2,2.18-.46,3.25-.72.5.12,1,.37,1.5.77.66-2.02,3.61-1.78,5.38-2.59l-.02-.06c.93-.26,1.87-.52,2.82-.79.21.12.42.26.63.44.14-.36.38-.45.45-.63.82-.02,1.57.15,2.33.31.07-.18.11-.8.35-.9.51-.11.98-.28,1.43-.48.56-.12,1.14-.23,1.72-.34,1.97-.32,3.94-.58,5.93-.73.13.19.24.46.35.72.16-.44.66-.3.84-.59-.02.11,0,.23.05.36.67-.75,1.06-.15,1.89-.2.16-.07.23-.39.36-.53h.27c1.28.87,1.98.17,2.93-.14L79.1,0c.83-.06,1.41.6,2.11.91Z"/>
      <path class="cls-1" d="m51.78,5.02l2.92.03c-.97.25-1.7.92-2.92-.03Z"/>
      <path class="cls-1" d="m26.86,9.69c-.48-.43-.96-.7-1.46-.85,2.31-.43,4.59-.97,6.91-1.51l.02.06c-1.79.72-4.72.32-5.48,2.3Z"/>
      <path class="cls-1" d="m49.2,5.26c.02-.08.04-.15.07-.22h0c-.01.09-.04.17-.08.22Z"/>
      <path class="cls-1" d="m24.86,21.3l-.23.03c.55-.26,1.1-.49,1.66-.7-.41.32-.91.51-1.43.67Z"/>
      <path class="cls-1" d="m18.48,21.99c-1.16.34-2.32.71-3.49,1.03-1.57.09-3.13.06-4.7-.38,2.7-.28,5.44-.41,8.19-.65Z"/>
      <path class="cls-1" d="m22.28,10.03c-.52-.12-1.07-.31-1.61-.47.49-.06.98-.12,1.47-.18-.05.21.09.46.14.65Z"/>
      <path class="cls-1" d="m29.55,19.55l-.35.1c.26-.24.52-.5.78-.75-.08.16-.29.41-.43.65Z"/>
      <path class="cls-1" d="m16.88,9.8c.37-.01.73-.02,1.1-.03-.18.16-.36.36-.52.62-.18-.26-.37-.45-.58-.58Z"/>
      <path class="cls-1" d="m11.41,11.01c-.49.08-.97.13-1.44.14.55-.18,1.11-.35,1.66-.51-.09.22-.16.42-.23.37Z"/>
    </g>
  </g>
</svg>