<svg width="18" height="19" viewBox="0 0 18 19" fill="none" xmlns="http://www.w3.org/2000/svg">
<path d="M16.7143 11.2838H10.2857V17.7123C10.2857 18.0533 10.1503 18.3804 9.90914 18.6215C9.66802 18.8626 9.34099 18.998 9 18.998C8.65901 18.998 8.33198 18.8626 8.09086 18.6215C7.84974 18.3804 7.71429 18.0533 7.71429 17.7123V11.2838H1.28571C0.944722 11.2838 0.617695 11.1483 0.376577 10.9072C0.135459 10.6661 0 10.339 0 9.99805C0 9.65705 0.135459 9.33003 0.376577 9.08891C0.617695 8.84779 0.944722 8.71233 1.28571 8.71233H7.71429V2.28376C7.71429 1.94277 7.84974 1.61574 8.09086 1.37462C8.33198 1.13351 8.65901 0.998047 9 0.998047C9.34099 0.998047 9.66802 1.13351 9.90914 1.37462C10.1503 1.61574 10.2857 1.94277 10.2857 2.28376V8.71233H16.7143C17.0553 8.71233 17.3823 8.84779 17.6234 9.08891C17.8645 9.33003 18 9.65705 18 9.99805C18 10.339 17.8645 10.6661 17.6234 10.9072C17.3823 11.1483 17.0553 11.2838 16.7143 11.2838Z" fill="white"/>
</svg>
