<svg width="75" height="22" viewBox="0 0 75 22" fill="none" xmlns="http://www.w3.org/2000/svg">
<path d="M4.92 7.896C4.86667 7.944 4.77333 7.984 4.64 8.016C4.50667 8.048 4.368 8.064 4.224 8.064C4.04267 8.064 3.904 8.04 3.808 7.992C3.712 7.944 3.63733 7.86133 3.584 7.744L2.992 6.416C2.90133 6.21867 2.80533 6.08533 2.704 6.016C2.60267 5.94667 2.45333 5.912 2.256 5.912H1.84V8H0.608V2.4H2.512C3.22667 2.4 3.776 2.552 4.16 2.856C4.544 3.16 4.736 3.59467 4.736 4.16C4.736 4.50667 4.65067 4.80533 4.48 5.056C4.31467 5.30133 4.072 5.488 3.752 5.616C3.896 5.76533 4.016 5.94667 4.112 6.16L4.92 7.896ZM2.432 5.048C2.80533 5.048 3.07467 4.97867 3.24 4.84C3.40533 4.70133 3.488 4.47467 3.488 4.16C3.488 3.84533 3.40533 3.61867 3.24 3.48C3.07467 3.336 2.80533 3.264 2.432 3.264H1.84V5.048H2.432ZM5.90119 2.4H7.13319V8H5.90119V2.4ZM12.8581 2.4C12.7567 3.504 12.5541 4.51467 12.2501 5.432C11.9461 6.34933 11.5327 7.20533 11.0101 8H9.93006C9.41273 7.216 9.00206 6.368 8.69806 5.456C8.39406 4.53867 8.18606 3.52 8.07406 2.4H9.33806C9.43406 3.30667 9.57806 4.128 9.77006 4.864C9.96206 5.6 10.1941 6.22133 10.4661 6.728C10.7381 6.22133 10.9701 5.6 11.1621 4.864C11.3541 4.128 11.4981 3.30667 11.5941 2.4H12.8581ZM17.1356 7.152C17.1356 7.47733 17.1063 7.70133 17.0476 7.824C16.989 7.94133 16.8796 8 16.7196 8H13.5436V2.4H17.0476V3.248H14.7756V4.688H16.6636V5.536H14.7756V7.152H17.1356ZM22.4122 7.896C22.3589 7.944 22.2655 7.984 22.1322 8.016C21.9989 8.048 21.8602 8.064 21.7162 8.064C21.5349 8.064 21.3962 8.04 21.3002 7.992C21.2042 7.944 21.1295 7.86133 21.0762 7.744L20.4842 6.416C20.3935 6.21867 20.2975 6.08533 20.1962 6.016C20.0949 5.94667 19.9455 5.912 19.7482 5.912H19.3322V8H18.1002V2.4H20.0042C20.7189 2.4 21.2682 2.552 21.6522 2.856C22.0362 3.16 22.2282 3.59467 22.2282 4.16C22.2282 4.50667 22.1429 4.80533 21.9722 5.056C21.8069 5.30133 21.5642 5.488 21.2442 5.616C21.3882 5.76533 21.5082 5.94667 21.6042 6.16L22.4122 7.896ZM19.9242 5.048C20.2975 5.048 20.5669 4.97867 20.7322 4.84C20.8975 4.70133 20.9802 4.47467 20.9802 4.16C20.9802 3.84533 20.8975 3.61867 20.7322 3.48C20.5669 3.336 20.2975 3.264 19.9242 3.264H19.3322V5.048H19.9242ZM29.6574 2.4C29.5294 3.59467 29.3694 4.62667 29.1774 5.496C28.9854 6.36533 28.732 7.2 28.4174 8H27.1214C26.8707 7.25333 26.6814 6.64533 26.5534 6.176C26.4307 5.70667 26.324 5.19733 26.2334 4.648C26.132 5.24533 26.0174 5.784 25.8894 6.264C25.7614 6.73867 25.58 7.31733 25.3454 8H24.0494C23.724 7.216 23.46 6.392 23.2574 5.528C23.0547 4.65867 22.8787 3.616 22.7294 2.4H23.9454C24.0574 3.49867 24.164 4.33867 24.2654 4.92C24.3667 5.496 24.5107 6.10667 24.6974 6.752C24.916 6.08533 25.0894 5.48267 25.2174 4.944C25.3454 4.4 25.516 3.552 25.7294 2.4H26.7054C26.9614 3.632 27.1534 4.512 27.2814 5.04C27.4094 5.56267 27.572 6.13067 27.7694 6.744C27.9507 6.10933 28.0867 5.504 28.1774 4.928C28.268 4.352 28.3667 3.50933 28.4734 2.4H29.6574ZM33.7413 8C33.6613 7.42933 33.5839 6.968 33.5093 6.616H31.3333C31.2586 6.968 31.1813 7.42933 31.1013 8H29.9013C30.1039 6.064 30.7386 4.19733 31.8053 2.4H33.0453C34.1066 4.18667 34.7386 6.05333 34.9413 8H33.7413ZM33.3173 5.736C33.0933 4.856 32.7946 4.048 32.4213 3.312C32.0479 4.048 31.7493 4.856 31.5253 5.736H33.3173ZM39.0465 7.152V8H35.7505V2.4H36.9825V7.152H39.0465ZM44.4041 7.96C44.2601 8.04 43.9934 8.08 43.6041 8.08C43.3054 8.08 43.1054 7.99467 43.0041 7.824L41.9481 6.096C41.8521 5.936 41.7721 5.824 41.7081 5.76C41.6494 5.696 41.5827 5.65333 41.5081 5.632C41.4334 5.61067 41.3214 5.6 41.1721 5.6H41.1161V8H39.8841V2.4H41.1161V4.784H41.4761L43.0361 2.4H44.3401L42.5081 5.08C42.7267 5.23467 42.9241 5.464 43.1001 5.768L44.4041 7.96Z" fill="#1E1E1E"/>
<path fill-rule="evenodd" clip-rule="evenodd" d="M0.510225 10C0.503423 10.1662 0.5 10.3329 0.5 10.5C0.5 18.2457 0.443291 21.0012 1.2039 21.2491C2.70183 21.7374 7.36971 12.5 21.8835 12.5C37.302 12.5 42.4365 21.6199 44.1463 21.0177C45 20.7169 45 17.9927 45 10.5C45 10.3329 44.9964 10.1662 44.9892 10H0.510225Z" fill="url(#paint0_radial_116_14)"/>
<path d="M16.2737 15.2C16.639 15.2 16.915 15.276 17.1017 15.428C17.291 15.5773 17.3857 15.7987 17.3857 16.092C17.3857 16.3907 17.291 16.616 17.1017 16.768C16.915 16.92 16.639 16.996 16.2737 16.996H15.7297V18H15.4417V15.2H16.2737ZM16.2737 16.748C16.559 16.748 16.767 16.696 16.8977 16.592C17.031 16.4853 17.0977 16.3187 17.0977 16.092C17.0977 15.868 17.031 15.7053 16.8977 15.604C16.767 15.5 16.559 15.448 16.2737 15.448H15.7297V16.748H16.2737ZM19.6826 18C19.6106 17.6693 19.5426 17.3987 19.4786 17.188H18.1186C18.0546 17.3987 17.9866 17.6693 17.9146 18H17.6186C17.7573 17.4293 17.9079 16.9227 18.0706 16.48C18.2333 16.0347 18.4266 15.608 18.6506 15.2H18.9506C19.1719 15.6053 19.3639 16.0307 19.5266 16.476C19.6893 16.9187 19.8399 17.4267 19.9786 18H19.6826ZM19.4106 16.948C19.2479 16.4307 19.0439 15.9453 18.7986 15.492C18.5533 15.9453 18.3493 16.4307 18.1866 16.948H19.4106ZM20.5951 15.2H20.8831V18H20.5951V15.2ZM23.8375 17.452C23.8375 17.5347 23.8402 17.632 23.8455 17.744C23.8508 17.8187 23.8535 17.868 23.8535 17.892C23.8535 17.964 23.8188 18 23.7495 18H23.5495V17.784C23.5495 17.6293 23.4975 17.4813 23.3935 17.34L22.0695 15.596V18H21.7815V15.2H22.0135C22.0482 15.2 22.0748 15.2053 22.0935 15.216C22.1148 15.224 22.1388 15.2453 22.1655 15.28L23.5495 17.1V15.2H23.8375V17.452ZM26.2752 15.2C26.2859 15.248 26.2912 15.28 26.2912 15.296C26.2912 15.3413 26.2792 15.3773 26.2552 15.404C26.2312 15.428 26.1952 15.44 26.1472 15.44H25.4112V18H25.1232V15.44H24.2592V15.2H26.2752ZM27.6239 18.04C27.4399 18.04 27.2706 18.012 27.1159 17.956C26.9613 17.8973 26.8386 17.8187 26.7479 17.72C26.6573 17.6213 26.6119 17.5133 26.6119 17.396C26.6119 17.3427 26.6306 17.3 26.6679 17.268C26.7079 17.2333 26.7599 17.2147 26.8239 17.212C26.8666 17.4013 26.9573 17.5453 27.0959 17.644C27.2346 17.7427 27.4133 17.792 27.6319 17.792C27.8559 17.792 28.0359 17.74 28.1719 17.636C28.3106 17.532 28.3799 17.396 28.3799 17.228C28.3799 17.1293 28.3546 17.0453 28.3039 16.976C28.2559 16.9067 28.1759 16.8453 28.0639 16.792C27.9519 16.736 27.7973 16.6827 27.5999 16.632C27.3706 16.5707 27.1906 16.5067 27.0599 16.44C26.9293 16.3707 26.8346 16.2933 26.7759 16.208C26.7199 16.12 26.6919 16.012 26.6919 15.884C26.6919 15.66 26.7746 15.484 26.9399 15.356C27.1053 15.2253 27.3333 15.16 27.6239 15.16C27.8773 15.16 28.0879 15.22 28.2559 15.34C28.4266 15.4573 28.5413 15.624 28.5999 15.84C28.5653 15.8747 28.5119 15.892 28.4399 15.892C28.3653 15.892 28.3106 15.856 28.2759 15.784C28.2173 15.6667 28.1279 15.5733 28.0079 15.504C27.8906 15.4347 27.7626 15.4 27.6239 15.4C27.4133 15.4 27.2533 15.4413 27.1439 15.524C27.0346 15.6067 26.9799 15.7267 26.9799 15.884C26.9799 15.964 26.9999 16.032 27.0399 16.088C27.0799 16.1413 27.1466 16.1907 27.2399 16.236C27.3333 16.2813 27.4653 16.328 27.6359 16.376C27.9213 16.456 28.1359 16.532 28.2799 16.604C28.4266 16.676 28.5293 16.7573 28.5879 16.848C28.6466 16.9387 28.6759 17.0573 28.6759 17.204C28.6759 17.372 28.6333 17.52 28.5479 17.648C28.4626 17.7733 28.3399 17.8707 28.1799 17.94C28.0226 18.0067 27.8373 18.04 27.6239 18.04Z" fill="#1E1E1E"/>
<defs>
<radialGradient id="paint0_radial_116_14" cx="0" cy="0" r="1" gradientUnits="userSpaceOnUse" gradientTransform="translate(22.255 11.0201) rotate(90) scale(7.47994 29.5412)">
<stop stop-color="#51737B"/>
<stop offset="0.526042" stop-color="#61ABBB"/>
<stop offset="1" stop-color="#94C6D1" stop-opacity="0.44"/>
</radialGradient>
</defs>
</svg>
