<svg width="76" height="31" viewBox="0 0 76 31" fill="none" xmlns="http://www.w3.org/2000/svg">
<path d="M17.658 16.4515C17.4191 16.4515 17.1453 16.322 16.8367 16.0632C16.528 15.8044 16.2045 15.4659 15.866 15.0477C15.5375 14.6296 15.2089 14.1716 14.8804 13.6739C14.5618 13.1661 14.2582 12.6584 13.9695 12.1507C13.6808 11.6429 13.4368 11.185 13.2377 10.7768C12.9689 11.6927 12.7101 12.5987 12.4612 13.4947C12.2223 14.3807 11.9933 15.202 11.7743 15.9587C11.4856 15.9587 11.2118 15.879 10.9529 15.7197C10.704 15.5604 10.5796 15.3514 10.5796 15.0925C10.5796 14.983 10.6045 14.8536 10.6543 14.7043C10.704 14.5549 10.7488 14.4106 10.7887 14.2712C11.0774 13.4051 11.3362 12.6335 11.5652 11.9565C11.7942 11.2696 12.0082 10.6424 12.2073 10.0749C12.4164 9.49751 12.6255 8.93004 12.8345 8.37253C13.0536 7.80506 13.2925 7.21271 13.5513 6.59546C13.8102 5.97822 14.1088 5.28133 14.4473 4.5048C14.0591 4.58444 13.7156 4.68898 13.4169 4.8184C13.1282 4.94782 12.8893 5.06231 12.7001 5.16186C12.5209 5.26142 12.3965 5.3112 12.3268 5.3112C12.277 5.3112 12.2024 5.28133 12.1028 5.2216C12.0032 5.15191 11.9136 5.07226 11.834 4.98266C11.7643 4.88311 11.7295 4.79849 11.7295 4.7288C12.0082 4.61929 12.3318 4.49982 12.7001 4.3704C13.0784 4.24098 13.4916 4.13146 13.9396 4.04186C14.3876 3.94231 14.8505 3.89253 15.3284 3.89253C15.7764 3.89253 16.2393 3.94729 16.7172 4.0568C17.1951 4.15635 17.6381 4.32062 18.0463 4.5496C18.4544 4.77858 18.783 5.07724 19.0319 5.4456C19.2808 5.81395 19.4052 6.25698 19.4052 6.77466C19.4052 7.24258 19.3007 7.65075 19.0916 7.9992C18.8825 8.33769 18.6038 8.6264 18.2553 8.86533C17.9069 9.10426 17.5236 9.2984 17.1055 9.44773C16.6873 9.59706 16.2642 9.71653 15.8361 9.80613C15.408 9.88578 15.0098 9.94053 14.6415 9.9704C14.2831 10.0003 13.9844 10.0202 13.7455 10.0301C14.064 10.5379 14.3776 11.0307 14.6863 11.5085C14.9949 11.9864 15.3234 12.4643 15.6719 12.9421C16.0303 13.41 16.4434 13.8829 16.9113 14.3608C17.3792 14.8287 17.9318 15.3066 18.5689 15.7944C18.5291 15.9935 18.4047 16.1528 18.1956 16.2723C17.9965 16.3917 17.8173 16.4515 17.658 16.4515ZM13.5812 9.58213C14.1387 9.54231 14.6863 9.45271 15.2239 9.31333C15.7714 9.17395 16.2642 8.97982 16.7023 8.73093C17.1503 8.48204 17.5037 8.17342 17.7625 7.80506C18.0313 7.42675 18.1657 6.98373 18.1657 6.476C18.1657 5.95831 18.0363 5.55511 17.7775 5.2664C17.5186 4.96773 17.1851 4.75369 16.7769 4.62427C16.3688 4.49484 15.9407 4.42515 15.4927 4.4152C15.1542 5.08222 14.8256 5.86871 14.5071 6.77466C14.1885 7.67066 13.8799 8.60649 13.5812 9.58213ZM20.178 15.0925C19.74 15.0925 19.4114 14.9631 19.1924 14.7043C18.9734 14.4454 18.8639 14.1318 18.8639 13.7635C18.8639 13.5345 18.9037 13.2458 18.9833 12.8973C19.063 12.5489 19.1725 12.1855 19.3119 11.8072C19.4612 11.4189 19.6304 11.0556 19.8196 10.7171C20.0088 10.3786 20.2128 10.1048 20.4319 9.89573C20.6509 9.67671 20.8699 9.5672 21.0889 9.5672C21.2084 9.5672 21.3129 9.60702 21.4025 9.68666C21.4921 9.75635 21.5369 9.86089 21.5369 10.0003C21.5369 10.1297 21.4573 10.3238 21.298 10.5827C21.1487 10.8415 20.9695 11.1402 20.7604 11.4787C20.5613 11.8172 20.3821 12.1706 20.2228 12.5389C20.0735 12.8973 19.9988 13.2408 19.9988 13.5693C19.9988 13.8879 20.0536 14.102 20.1631 14.2115C20.2825 14.311 20.4518 14.3608 20.6708 14.3608C21.0093 14.3608 21.3776 14.1916 21.7759 13.8531C22.1741 13.5146 22.5872 12.9222 23.0153 12.076L23.2393 12.3149C22.8909 13.191 22.4479 13.873 21.9103 14.3608C21.3727 14.8486 20.7952 15.0925 20.178 15.0925ZM21.9401 8.3576C21.751 8.3576 21.5768 8.3128 21.4175 8.2232C21.2681 8.12364 21.1935 7.97431 21.1935 7.7752C21.1935 7.53626 21.3229 7.33218 21.5817 7.16293C21.8406 6.99369 22.1094 6.90906 22.3881 6.90906C22.5673 6.90906 22.7167 6.94889 22.8361 7.02853C22.9656 7.10818 23.0303 7.25253 23.0303 7.4616C23.0303 7.67066 22.9158 7.87475 22.6868 8.07386C22.4578 8.26302 22.2089 8.3576 21.9401 8.3576ZM23.7342 15.2269C23.3659 15.2269 23.107 15.0577 22.9577 14.7192C22.8183 14.3907 22.7486 13.9626 22.7486 13.4349C22.7486 13.3254 22.7536 13.1313 22.7636 12.8525C22.7735 12.5638 22.7885 12.1656 22.8084 11.6579C22.8183 11.3592 22.8482 11.1551 22.898 11.0456C22.9577 10.9361 23.117 10.8813 23.3758 10.8813C23.6148 10.8813 23.7541 10.9311 23.794 11.0307C23.8437 11.1203 23.8686 11.3094 23.8686 11.5981C23.8686 11.8968 23.8537 12.2154 23.8238 12.5539C23.8039 12.8924 23.794 13.2209 23.794 13.5395C23.794 13.8481 23.8089 14.0771 23.8388 14.2264C23.8686 14.3658 23.9433 14.4355 24.0628 14.4355C24.242 14.4355 24.4361 14.3409 24.6452 14.1517C24.8542 13.9526 25.0633 13.7037 25.2724 13.4051C25.4914 13.0964 25.6955 12.7679 25.8846 12.4195C26.0837 12.0611 26.258 11.7176 26.4073 11.3891C26.4272 10.7121 26.5069 10.2591 26.6462 10.0301C26.7856 9.80115 26.9648 9.68666 27.1838 9.68666C27.4327 9.68666 27.602 9.76631 27.6916 9.9256C27.7812 10.0849 27.826 10.2243 27.826 10.3437C27.826 10.4931 27.7861 10.6275 27.7065 10.7469C27.6269 10.8664 27.5472 11.0307 27.4676 11.2397C27.3879 11.4488 27.3481 11.7674 27.3481 12.1955C27.3481 12.3348 27.3581 12.4892 27.378 12.6584C27.4078 12.8177 27.4676 12.9571 27.5572 13.0765C27.6567 13.186 27.8011 13.2408 27.9902 13.2408C28.1893 13.2408 28.3785 13.1612 28.5577 13.0019C28.7469 12.8326 28.946 12.5439 29.155 12.1357L29.3193 12.2701C29.0903 12.8177 28.8315 13.201 28.5428 13.42C28.264 13.639 27.9952 13.7485 27.7364 13.7485C27.4078 13.7485 27.139 13.6191 26.93 13.3603C26.7309 13.0915 26.5765 12.758 26.467 12.3597C26.2281 12.8077 25.9543 13.2508 25.6457 13.6888C25.347 14.1268 25.0334 14.4902 24.7049 14.7789C24.3764 15.0776 24.0528 15.2269 23.7342 15.2269ZM30.4864 15.3016C29.8493 15.3016 29.3565 15.1274 29.008 14.7789C28.6695 14.4404 28.5003 14.0124 28.5003 13.4947C28.5003 13.0566 28.6098 12.5937 28.8288 12.1059C29.0578 11.6081 29.3615 11.1452 29.7398 10.7171C30.1181 10.279 30.5362 9.9256 30.9942 9.6568C31.4521 9.388 31.9101 9.2536 32.368 9.2536C32.6269 9.2536 32.8708 9.32329 33.0998 9.46266C33.3387 9.59209 33.4582 9.85591 33.4582 10.2541C33.4582 10.6324 33.3487 10.9859 33.1296 11.3144C32.9106 11.6429 32.6169 11.9366 32.2486 12.1955C31.8802 12.4543 31.472 12.6684 31.024 12.8376C30.586 12.9969 30.143 13.1014 29.695 13.1512C29.685 13.191 29.6751 13.2358 29.6651 13.2856C29.6651 13.3254 29.6651 13.3951 29.6651 13.4947C29.6651 13.5444 29.6701 13.634 29.68 13.7635C29.6999 13.8829 29.7447 14.0124 29.8144 14.1517C29.8841 14.2911 29.9986 14.4106 30.1579 14.5101C30.3172 14.6097 30.5362 14.6595 30.815 14.6595C31.2331 14.6595 31.6512 14.545 32.0694 14.316C32.4975 14.0771 32.8957 13.7635 33.264 13.3752C33.6423 12.9869 33.9559 12.5539 34.2048 12.076L34.5035 12.3149C34.2347 12.9123 33.8863 13.4349 33.4582 13.8829C33.04 14.3309 32.5721 14.6794 32.0544 14.9283C31.5467 15.1772 31.024 15.3016 30.4864 15.3016ZM29.8592 12.5987C30.1181 12.5688 30.4068 12.4792 30.7254 12.3299C31.0439 12.1805 31.3476 11.9914 31.6363 11.7624C31.935 11.5334 32.1789 11.2845 32.368 11.0157C32.5572 10.737 32.6518 10.4582 32.6518 10.1795C32.6518 10.07 32.6319 9.99529 32.592 9.95546C32.5522 9.91564 32.4875 9.89573 32.3979 9.89573C32.1689 9.89573 31.93 9.98035 31.6811 10.1496C31.4322 10.3089 31.1883 10.5229 30.9494 10.7917C30.7104 11.0506 30.4964 11.3393 30.3072 11.6579C30.1181 11.9764 29.9687 12.29 29.8592 12.5987ZM36.6064 15.0328C36.2381 15.0328 35.9394 14.9332 35.7104 14.7341C35.4814 14.545 35.3669 14.2861 35.3669 13.9576C35.3669 13.6788 35.4366 13.3802 35.576 13.0616C35.7154 12.743 35.8548 12.4294 35.9942 12.1208C36.1435 11.8122 36.2181 11.5384 36.2181 11.2995C36.2181 11.0705 36.1435 10.8813 35.9942 10.732C35.8448 10.5727 35.6706 10.4433 35.4715 10.3437C35.2525 10.8913 35.0036 11.4239 34.7248 11.9416C34.456 12.4493 34.237 12.8476 34.0677 13.1363L33.8438 12.7032C33.9831 12.4444 34.1673 12.076 34.3963 11.5981C34.6253 11.1203 34.8443 10.5876 35.0533 10.0003C34.9538 9.90071 34.904 9.76631 34.904 9.59706C34.904 9.33822 34.9837 9.09431 35.1429 8.86533C35.3022 8.63635 35.4566 8.52186 35.6059 8.52186C35.7254 8.52186 35.81 8.59155 35.8597 8.73093C35.9195 8.86035 35.9493 8.94995 35.9493 8.99973C35.9493 9.04951 35.9245 9.13911 35.8747 9.26853C35.8349 9.39795 35.805 9.49253 35.7851 9.55226C35.795 9.66178 35.8797 9.77129 36.0389 9.8808C36.2082 9.98035 36.3973 10.0998 36.6064 10.2392C36.8155 10.3786 36.9997 10.5528 37.159 10.7619C37.3182 10.9709 37.3979 11.2348 37.3979 11.5533C37.3979 11.842 37.3332 12.1357 37.2037 12.4344C37.0743 12.7331 36.9449 13.0118 36.8155 13.2707C36.6861 13.5295 36.6213 13.7535 36.6213 13.9427C36.6213 14.082 36.6562 14.1766 36.7259 14.2264C36.8055 14.2662 36.8951 14.2861 36.9947 14.2861C37.2336 14.2861 37.4825 14.2164 37.7413 14.0771C38.0002 13.9277 38.2541 13.7386 38.5029 13.5096C38.7518 13.2806 38.9709 13.0417 39.16 12.7928C39.3492 12.534 39.4935 12.3 39.5931 12.0909L39.9515 12.3597C39.7623 12.7878 39.4885 13.2109 39.1301 13.6291C38.7717 14.0372 38.3735 14.3757 37.9355 14.6445C37.4974 14.9034 37.0544 15.0328 36.6064 15.0328ZM43.6143 15.212C43.2759 15.212 43.0469 15.0627 42.9274 14.764C42.8179 14.4753 42.7532 14.1268 42.7333 13.7187C42.7432 13.5992 42.7482 13.4349 42.7482 13.2259C42.7582 13.0168 42.7681 12.8426 42.7781 12.7032C42.569 13.0815 42.34 13.4548 42.0911 13.8232C41.8423 14.1916 41.5784 14.4952 41.2997 14.7341C41.0209 14.9731 40.7272 15.0925 40.4186 15.0925C40.0801 15.0925 39.8014 14.9432 39.5823 14.6445C39.3633 14.3359 39.2538 13.9676 39.2538 13.5395C39.2538 13.2508 39.2986 12.9172 39.3882 12.5389C39.4878 12.1606 39.6072 11.7923 39.7466 11.4339C39.8959 11.0755 40.0453 10.7768 40.1946 10.5379C40.3539 10.2989 40.4933 10.1795 40.6127 10.1795C40.6824 10.1795 40.8019 10.2193 40.9711 10.2989C41.1503 10.3786 41.2599 10.4831 41.2997 10.6125C41.1902 10.7718 41.0558 11.0157 40.8965 11.3443C40.7471 11.6728 40.6127 12.0262 40.4933 12.4045C40.3838 12.7729 40.329 13.1114 40.329 13.42C40.329 13.4797 40.334 13.5843 40.3439 13.7336C40.3639 13.873 40.4087 14.0024 40.4783 14.1219C40.548 14.2413 40.6526 14.3011 40.7919 14.3011C41.011 14.3011 41.2399 14.1667 41.4789 13.8979C41.7278 13.6291 41.9767 13.2906 42.2255 12.8824C42.4744 12.4742 42.7084 12.0561 42.9274 11.628C43.017 11.1999 43.0917 10.8913 43.1514 10.7021C43.2111 10.513 43.2709 10.3935 43.3306 10.3437C43.4003 10.294 43.4799 10.2691 43.5695 10.2691C43.7587 10.2691 43.9031 10.3089 44.0026 10.3885C44.1121 10.4582 44.1669 10.5628 44.1669 10.7021C44.1669 10.7121 44.1569 10.7569 44.137 10.8365C44.1171 10.9062 44.1022 10.951 44.0922 10.9709C44.0325 11.18 43.9777 11.4339 43.9279 11.7325C43.8782 12.0212 43.8383 12.3348 43.8085 12.6733C43.7786 13.0019 43.7637 13.3354 43.7637 13.6739C43.7637 13.9128 43.7786 14.102 43.8085 14.2413C43.8383 14.3708 43.913 14.4355 44.0325 14.4355C44.1719 14.4355 44.3311 14.3508 44.5103 14.1816C44.6995 14.0124 44.8936 13.7884 45.0927 13.5096C45.3018 13.2308 45.5009 12.9272 45.6901 12.5987C45.8892 12.2602 46.0684 11.9217 46.2277 11.5832C46.2277 11.0655 46.2625 10.6723 46.3322 10.4035C46.4119 10.1347 46.5114 9.95049 46.6309 9.85093C46.7603 9.74142 46.8997 9.68666 47.049 9.68666C47.2979 9.68666 47.4671 9.76631 47.5567 9.9256C47.6563 10.0849 47.7061 10.2193 47.7061 10.3288C47.7061 10.4284 47.6812 10.5229 47.6314 10.6125C47.5816 10.6922 47.5418 10.7668 47.5119 10.8365C47.4423 10.9859 47.3726 11.1651 47.3029 11.3741C47.2431 11.5832 47.2133 11.847 47.2133 12.1656C47.2133 12.3348 47.2282 12.5091 47.2581 12.6883C47.2979 12.8575 47.3626 12.9969 47.4522 13.1064C47.5518 13.2159 47.6911 13.2707 47.8703 13.2707C48.0495 13.2707 48.2287 13.191 48.4079 13.0317C48.5971 12.8724 48.8012 12.5738 49.0202 12.1357L49.3039 12.3597C49.0849 12.8774 48.836 13.2358 48.5573 13.4349C48.2785 13.6241 48.0097 13.7187 47.7509 13.7187C47.4223 13.7187 47.1436 13.5992 46.9146 13.3603C46.6856 13.1213 46.5064 12.8276 46.377 12.4792C46.1281 12.9073 45.8494 13.3354 45.5407 13.7635C45.2421 14.1816 44.9285 14.5251 44.5999 14.7939C44.2714 15.0726 43.9429 15.212 43.6143 15.212ZM49.5258 15.3464C49.1973 15.3464 48.9136 15.2369 48.6746 15.0179C48.4258 14.7988 48.3013 14.4703 48.3013 14.0323C48.3013 13.6838 48.381 13.3055 48.5402 12.8973C48.6995 12.4892 48.9186 12.086 49.1973 11.6877C49.4761 11.2895 49.7946 10.9311 50.153 10.6125C50.5114 10.284 50.8947 10.0202 51.3029 9.82106C51.7111 9.62195 52.1193 9.5224 52.5274 9.5224C52.9555 9.5224 53.3189 9.63191 53.6176 9.85093C53.9162 10.07 54.0656 10.3587 54.0656 10.7171C54.0656 10.9859 53.971 11.18 53.7818 11.2995C53.5927 11.4189 53.3687 11.4538 53.1098 11.404C53.1298 11.3144 53.1447 11.2248 53.1546 11.1352C53.1746 11.0456 53.1845 10.951 53.1845 10.8515C53.1845 10.6524 53.1447 10.4732 53.065 10.3139C52.9854 10.1546 52.8162 10.0749 52.5573 10.0749C52.2786 10.0749 51.9948 10.1695 51.7061 10.3587C51.4174 10.5478 51.1386 10.7967 50.8698 11.1053C50.611 11.404 50.377 11.7375 50.168 12.1059C49.9589 12.4643 49.7946 12.8177 49.6752 13.1661C49.5557 13.5146 49.496 13.8282 49.496 14.1069C49.496 14.4255 49.6105 14.5848 49.8394 14.5848C50.0684 14.5848 50.3223 14.4753 50.601 14.2563C50.8798 14.0273 51.1586 13.7436 51.4373 13.4051C51.726 13.0666 51.9998 12.7231 52.2586 12.3747C52.5175 12.0163 52.7415 11.7126 52.9306 11.4637C52.9605 11.414 53.0003 11.3891 53.0501 11.3891C53.0899 11.399 53.1646 11.4239 53.2741 11.4637C53.3936 11.4936 53.5031 11.5434 53.6026 11.6131C53.7022 11.6828 53.752 11.7724 53.752 11.8819C53.752 11.9814 53.7072 12.1108 53.6176 12.2701C53.5379 12.4195 53.4384 12.5887 53.3189 12.7779C53.2094 12.9571 53.1098 13.1412 53.0202 13.3304C52.9406 13.5096 52.9008 13.6838 52.9008 13.8531C52.9008 13.9825 52.9356 14.1069 53.0053 14.2264C53.075 14.3359 53.1895 14.3907 53.3488 14.3907C53.5877 14.3907 53.9212 14.2164 54.3493 13.868C54.7874 13.5096 55.2304 12.9073 55.6784 12.0611L55.9621 12.3448C55.7232 12.8824 55.4345 13.3603 55.096 13.7784C54.7674 14.1866 54.419 14.5052 54.0506 14.7341C53.6823 14.9731 53.309 15.0925 52.9306 15.0925C52.5225 15.0925 52.2188 14.9631 52.0197 14.7043C51.8206 14.4454 51.7111 14.1667 51.6912 13.868C51.6912 13.8481 51.6912 13.8332 51.6912 13.8232C51.6912 13.8132 51.6912 13.8033 51.6912 13.7933C51.293 14.2712 50.9246 14.6495 50.5861 14.9283C50.2576 15.207 49.9042 15.3464 49.5258 15.3464ZM56.6093 15.0925C56.1414 15.0925 55.8128 14.9382 55.6237 14.6296C55.4445 14.311 55.3549 13.9377 55.3549 13.5096C55.3549 13.0218 55.4445 12.4493 55.6237 11.7923C55.8029 11.1352 56.0368 10.4483 56.3255 9.73146C56.6242 9.00471 56.9478 8.29786 57.2962 7.61093C57.6546 6.91404 58.013 6.28684 58.3714 5.72933C58.7298 5.17182 59.0583 4.7288 59.357 4.40026C59.6656 4.06178 59.9145 3.89253 60.1037 3.89253C60.2331 3.89253 60.3426 3.96222 60.4322 4.1016C60.5218 4.23102 60.5915 4.39031 60.6413 4.57946C60.701 4.75866 60.7309 4.92791 60.7309 5.0872C60.7309 5.356 60.6612 5.70942 60.5218 6.14747C60.3924 6.57555 60.2032 7.04844 59.9543 7.56613C59.7154 8.08382 59.4267 8.61644 59.0882 9.164C58.7597 9.7016 58.3913 10.2143 57.9831 10.7021C57.5849 11.19 57.1568 11.6131 56.6989 11.9715C56.659 12.2204 56.6192 12.4692 56.5794 12.7181C56.5495 12.9571 56.5346 13.1761 56.5346 13.3752C56.5346 13.7336 56.5943 13.9974 56.7138 14.1667C56.8333 14.326 56.9876 14.4056 57.1767 14.4056C57.4256 14.4056 57.6795 14.2911 57.9383 14.0621C58.2071 13.8232 58.461 13.5245 58.6999 13.1661C58.9488 12.7978 59.1629 12.4195 59.3421 12.0312L59.7005 12.2253C59.2724 13.1114 58.7945 13.8132 58.2669 14.3309C57.7392 14.8387 57.1867 15.0925 56.6093 15.0925ZM56.9677 11.0456C57.3062 10.6772 57.6247 10.279 57.9234 9.85093C58.232 9.41289 58.5108 8.96986 58.7597 8.52186C59.0185 8.07386 59.2425 7.6408 59.4317 7.22266C59.6208 6.80453 59.7652 6.4312 59.8647 6.10266C59.9742 5.76418 60.034 5.49538 60.0439 5.29626C60.0439 5.28631 60.0439 5.28133 60.0439 5.28133C60.0439 5.27138 60.0439 5.26142 60.0439 5.25147C59.9643 5.25147 59.8349 5.36595 59.6557 5.59493C59.4864 5.81395 59.2823 6.1176 59.0434 6.50586C58.8045 6.89413 58.5556 7.33715 58.2967 7.83493C58.0478 8.33271 57.8039 8.86035 57.565 9.41786C57.336 9.96542 57.1369 10.508 56.9677 11.0456ZM63.7193 15.212C63.4107 15.212 63.1419 15.1124 62.9129 14.9133C62.6839 14.7142 62.4997 14.4653 62.3603 14.1667C62.221 13.868 62.1164 13.5644 62.0467 13.2557C61.9771 12.9372 61.9422 12.6634 61.9422 12.4344C62.0816 12.4045 62.2558 12.3597 62.4649 12.3C62.6739 12.2403 62.888 12.1606 63.107 12.0611C63.326 11.9516 63.5052 11.8221 63.6446 11.6728C63.7939 11.5135 63.8686 11.3244 63.8686 11.1053C63.8686 10.9261 63.8089 10.7818 63.6894 10.6723C63.5799 10.5628 63.4206 10.508 63.2115 10.508C62.9328 10.508 62.669 10.6026 62.4201 10.7917C62.1712 10.9709 61.9372 11.2099 61.7182 11.5085C61.5091 11.8072 61.315 12.1308 61.1358 12.4792C60.9666 12.8276 60.8123 13.1661 60.6729 13.4947C60.5435 13.8232 60.4339 14.1069 60.3443 14.3459C60.2348 14.6445 60.1303 14.8436 60.0307 14.9432C59.9312 15.0527 59.7868 15.1075 59.5977 15.1075C59.528 15.1075 59.4434 15.0876 59.3438 15.0477C59.2542 15.0079 59.1746 14.9084 59.1049 14.7491C59.0451 14.5898 59.0153 14.3359 59.0153 13.9875C59.0153 13.3802 59.0999 12.7132 59.2691 11.9864C59.4384 11.2596 59.6624 10.5229 59.9411 9.77626C60.2299 9.01964 60.5435 8.29786 60.8819 7.61093C61.2204 6.924 61.5639 6.30675 61.9123 5.7592C62.2608 5.21164 62.5843 4.77858 62.883 4.46C63.1916 4.14142 63.4455 3.98213 63.6446 3.98213C63.8139 3.98213 63.9532 4.08666 64.0627 4.29573C64.1822 4.49484 64.2419 4.75369 64.2419 5.07226C64.2419 5.41075 64.1673 5.78906 64.0179 6.2072C63.8686 6.61538 63.6546 7.03351 63.3758 7.4616C63.107 7.87973 62.7835 8.27795 62.4051 8.65626C62.0268 9.03458 61.6087 9.35813 61.1507 9.62693C60.872 10.274 60.6579 10.9162 60.5086 11.5533C60.3593 12.1805 60.2647 12.738 60.2249 13.2259C60.4041 12.8177 60.6082 12.3996 60.8371 11.9715C61.0661 11.5434 61.32 11.1452 61.5987 10.7768C61.8775 10.3985 62.1762 10.0948 62.4947 9.86586C62.8233 9.63689 63.1717 9.5224 63.5401 9.5224C63.9383 9.5224 64.2867 9.66178 64.5854 9.94053C64.8841 10.2193 65.0334 10.5677 65.0334 10.9859C65.0334 11.2845 64.9538 11.5434 64.7945 11.7624C64.6352 11.9814 64.4361 12.1656 64.1971 12.3149C63.9682 12.4543 63.7342 12.5588 63.4953 12.6285C63.2563 12.6982 63.0523 12.738 62.883 12.748C62.9129 12.8774 62.9527 13.0417 63.0025 13.2408C63.0622 13.4399 63.1369 13.634 63.2265 13.8232C63.3161 14.0124 63.4306 14.1716 63.5699 14.3011C63.7093 14.4305 63.8736 14.4952 64.0627 14.4952C64.3116 14.4952 64.5655 14.3807 64.8243 14.1517C65.0931 13.9228 65.352 13.6191 65.6009 13.2408C65.8597 12.8625 66.0887 12.4444 66.2878 11.9864L66.4969 12.2403C66.3276 12.738 66.0937 13.2159 65.795 13.6739C65.5063 14.1318 65.1827 14.5002 64.8243 14.7789C64.4659 15.0676 64.0976 15.212 63.7193 15.212ZM61.5838 8.61146C61.8526 8.37253 62.1363 8.07884 62.435 7.7304C62.7337 7.372 62.9875 6.99369 63.1966 6.59546C63.4156 6.18729 63.5301 5.79902 63.5401 5.43066C63.5401 5.42071 63.5401 5.41573 63.5401 5.41573C63.5401 5.40578 63.5401 5.39582 63.5401 5.38587C63.4405 5.42569 63.2812 5.59991 63.0622 5.90853C62.8531 6.2072 62.6192 6.59049 62.3603 7.0584C62.1015 7.52631 61.8427 8.044 61.5838 8.61146Z" fill="#29393D"/>
<path d="M29.8195 25C30.3414 25 30.7357 25.1086 31.0024 25.3257C31.2728 25.539 31.4081 25.8552 31.4081 26.2743C31.4081 26.701 31.2728 27.0229 31.0024 27.24C30.7357 27.4571 30.3414 27.5657 29.8195 27.5657H29.0424V29H28.6309V25H29.8195ZM29.8195 27.2114C30.2271 27.2114 30.5243 27.1371 30.7109 26.9886C30.9014 26.8362 30.9967 26.5981 30.9967 26.2743C30.9967 25.9543 30.9014 25.7219 30.7109 25.5771C30.5243 25.4286 30.2271 25.3543 29.8195 25.3543H29.0424V27.2114H29.8195ZM34.6894 29C34.5866 28.5276 34.4894 28.141 34.398 27.84H32.4551C32.3637 28.141 32.2666 28.5276 32.1637 29H31.7408C31.9389 28.1848 32.1542 27.461 32.3866 26.8286C32.6189 26.1924 32.8951 25.5829 33.2151 25H33.6437C33.9599 25.579 34.2342 26.1867 34.4666 26.8229C34.6989 27.4552 34.9142 28.181 35.1123 29H34.6894ZM34.3008 27.4971C34.0685 26.7581 33.777 26.0648 33.4266 25.4171C33.0761 26.0648 32.7847 26.7581 32.5523 27.4971H34.3008ZM35.9929 25H36.4044V29H35.9929V25ZM40.625 28.2171C40.625 28.3352 40.6288 28.4743 40.6364 28.6343C40.644 28.741 40.6479 28.8114 40.6479 28.8457C40.6479 28.9486 40.5983 29 40.4993 29H40.2136V28.6914C40.2136 28.4705 40.1393 28.259 39.9907 28.0571L38.0993 25.5657V29H37.6879V25H38.0193C38.0688 25 38.1069 25.0076 38.1336 25.0229C38.164 25.0343 38.1983 25.0648 38.2364 25.1143L40.2136 27.7143V25H40.625V28.2171ZM44.1075 25C44.1227 25.0686 44.1303 25.1143 44.1303 25.1371C44.1303 25.2019 44.1132 25.2533 44.0789 25.2914C44.0446 25.3257 43.9932 25.3429 43.9246 25.3429H42.8732V29H42.4617V25.3429H41.2275V25H44.1075ZM46.0342 29.0571C45.7713 29.0571 45.5294 29.0171 45.3085 28.9371C45.0875 28.8533 44.9123 28.741 44.7828 28.6C44.6532 28.459 44.5885 28.3048 44.5885 28.1371C44.5885 28.061 44.6151 28 44.6685 27.9543C44.7256 27.9048 44.7999 27.8781 44.8913 27.8743C44.9523 28.1448 45.0818 28.3505 45.2799 28.4914C45.478 28.6324 45.7332 28.7029 46.0456 28.7029C46.3656 28.7029 46.6228 28.6286 46.8171 28.48C47.0151 28.3314 47.1142 28.1371 47.1142 27.8971C47.1142 27.7562 47.078 27.6362 47.0056 27.5371C46.9371 27.4381 46.8228 27.3505 46.6628 27.2743C46.5028 27.1943 46.2818 27.1181 45.9999 27.0457C45.6723 26.9581 45.4151 26.8667 45.2285 26.7714C45.0418 26.6724 44.9066 26.5619 44.8228 26.44C44.7428 26.3143 44.7028 26.16 44.7028 25.9771C44.7028 25.6571 44.8209 25.4057 45.0571 25.2229C45.2932 25.0362 45.619 24.9429 46.0342 24.9429C46.3961 24.9429 46.6971 25.0286 46.9371 25.2C47.1809 25.3676 47.3447 25.6057 47.4285 25.9143C47.379 25.9638 47.3028 25.9886 47.1999 25.9886C47.0932 25.9886 47.0151 25.9371 46.9656 25.8343C46.8818 25.6667 46.7542 25.5333 46.5828 25.4343C46.4151 25.3352 46.2323 25.2857 46.0342 25.2857C45.7332 25.2857 45.5047 25.3448 45.3485 25.4629C45.1923 25.581 45.1142 25.7524 45.1142 25.9771C45.1142 26.0914 45.1428 26.1886 45.1999 26.2686C45.2571 26.3448 45.3523 26.4152 45.4856 26.48C45.619 26.5448 45.8075 26.6114 46.0513 26.68C46.459 26.7943 46.7656 26.9029 46.9713 27.0057C47.1809 27.1086 47.3275 27.2248 47.4113 27.3543C47.4951 27.4838 47.5371 27.6533 47.5371 27.8629C47.5371 28.1029 47.4761 28.3143 47.3542 28.4971C47.2323 28.6762 47.0571 28.8152 46.8285 28.9143C46.6037 29.0095 46.339 29.0571 46.0342 29.0571Z" fill="#29393D"/>
<path fill-rule="evenodd" clip-rule="evenodd" d="M61.1996 29.2388H51.9803C49.5873 23.9382 43.1301 20.1406 35.5399 20.1406C27.9498 20.1406 21.4926 23.9382 19.0996 29.2388H10.0002C11.3377 23.1171 22.4922 18 35.3285 18C48.1648 18 59.802 23.1171 61.1996 29.2388Z" fill="#29393D"/>
<path fill-rule="evenodd" clip-rule="evenodd" d="M66.1936 29.2388H56.9737C54.5807 23.9382 48.1235 20.1406 40.5333 20.1406C32.9431 20.1406 26.486 23.9382 24.093 29.2388H14.9942C16.3317 23.1171 27.4862 18 40.3225 18C53.1588 18 64.796 23.1171 66.1936 29.2388Z" fill="#4CA0B2"/>
</svg>
