<svg width="76" height="31" viewBox="0 0 76 31" fill="none" xmlns="http://www.w3.org/2000/svg">
<path d="M15.6248 16.4802C15.3744 16.4802 15.0876 16.3446 14.7642 16.0733C14.4408 15.8021 14.1018 15.4475 13.7472 15.0094C13.403 14.5713 13.0587 14.0914 12.7145 13.5699C12.3807 13.0379 12.0626 12.5059 11.7601 11.9739C11.4576 11.4419 11.202 10.9621 10.9934 10.5344C10.7117 11.4941 10.4405 12.4433 10.1797 13.3821C9.9294 14.3105 9.68948 15.1711 9.46 15.9638C9.1575 15.9638 8.87064 15.8804 8.59943 15.7135C8.33865 15.5466 8.20827 15.3275 8.20827 15.0563C8.20827 14.9416 8.23434 14.806 8.2865 14.6495C8.33865 14.493 8.38559 14.3418 8.42732 14.1957C8.72982 13.2882 9.00103 12.4798 9.24094 11.7705C9.48086 11.0508 9.70513 10.3936 9.91375 9.79904C10.1328 9.19404 10.3519 8.59946 10.5709 8.01532C10.8004 7.42075 11.0507 6.8001 11.3219 6.15337C11.5932 5.50664 11.9061 4.77647 12.2607 3.96284C11.8539 4.04629 11.4941 4.15581 11.1811 4.29142C10.8786 4.42702 10.6283 4.54698 10.4301 4.65129C10.2423 4.7556 10.1119 4.80776 10.0389 4.80776C9.98677 4.80776 9.90853 4.77647 9.80422 4.71388C9.69991 4.64086 9.60603 4.55741 9.52258 4.46353C9.44957 4.35922 9.41306 4.27056 9.41306 4.19754C9.70513 4.0828 10.0441 3.95762 10.4301 3.82202C10.8265 3.68642 11.2594 3.57167 11.7288 3.47779C12.1982 3.37348 12.6832 3.32133 13.1839 3.32133C13.6533 3.32133 14.1383 3.3787 14.639 3.49344C15.1397 3.59775 15.6039 3.76986 16.0316 4.00978C16.4593 4.24969 16.8035 4.56263 17.0643 4.94858C17.325 5.33453 17.4554 5.79871 17.4554 6.34113C17.4554 6.83139 17.3459 7.25907 17.1269 7.62416C16.9078 7.97881 16.6157 8.28131 16.2506 8.53166C15.8856 8.78201 15.484 8.98541 15.0459 9.14188C14.6077 9.29835 14.1644 9.42352 13.7159 9.5174C13.2673 9.60085 12.8501 9.65822 12.4642 9.68951C12.0886 9.72081 11.7757 9.74167 11.5254 9.7521C11.8591 10.2841 12.1877 10.8004 12.5111 11.3011C12.8345 11.8018 13.1787 12.3025 13.5438 12.8032C13.9193 13.2935 14.3522 13.7889 14.8424 14.2896C15.3327 14.7799 15.9116 15.2806 16.5792 15.7917C16.5375 16.0003 16.4071 16.1672 16.1881 16.2924C15.9794 16.4176 15.7917 16.4802 15.6248 16.4802ZM11.3532 9.2827C11.9374 9.24098 12.5111 9.1471 13.0744 9.00106C13.6481 8.85502 14.1644 8.65162 14.6234 8.39084C15.0928 8.13006 15.4631 7.8067 15.7343 7.42075C16.0159 7.02437 16.1568 6.56018 16.1568 6.0282C16.1568 5.48578 16.0212 5.06332 15.7499 4.76082C15.4787 4.44789 15.1293 4.22362 14.7016 4.08801C14.2739 3.95241 13.8254 3.87939 13.356 3.86896C13.0014 4.56784 12.6571 5.3919 12.3233 6.34113C11.9895 7.27993 11.6662 8.26045 11.3532 9.2827ZM18.2651 15.0563C17.8062 15.0563 17.462 14.9207 17.2325 14.6495C17.003 14.3783 16.8882 14.0497 16.8882 13.6638C16.8882 13.4238 16.93 13.1213 17.0134 12.7563C17.0969 12.3912 17.2116 12.0104 17.3576 11.6141C17.5141 11.2072 17.6914 10.8265 17.8896 10.4718C18.0878 10.1172 18.3017 9.83033 18.5311 9.61128C18.7606 9.3818 18.9901 9.26705 19.2196 9.26705C19.3448 9.26705 19.4543 9.30878 19.5482 9.39223C19.6421 9.46524 19.689 9.57477 19.689 9.72081C19.689 9.85641 19.6055 10.0598 19.4386 10.331C19.2822 10.6022 19.0944 10.9152 18.8754 11.2698C18.6667 11.6245 18.479 11.9948 18.3121 12.3807C18.1556 12.7563 18.0774 13.1161 18.0774 13.4604C18.0774 13.7942 18.1348 14.0184 18.2495 14.1332C18.3747 14.2375 18.552 14.2896 18.7815 14.2896C19.1361 14.2896 19.5221 14.1123 19.9393 13.7576C20.3566 13.403 20.7895 12.7823 21.238 11.8957L21.4727 12.146C21.1076 13.064 20.6434 13.7785 20.0802 14.2896C19.5169 14.8008 18.9119 15.0563 18.2651 15.0563ZM20.1115 7.99967C19.9133 7.99967 19.7307 7.95273 19.5638 7.85886C19.4074 7.75454 19.3291 7.59808 19.3291 7.38946C19.3291 7.13911 19.4647 6.92527 19.7359 6.74794C20.0071 6.57061 20.2888 6.48195 20.5809 6.48195C20.7686 6.48195 20.9251 6.52367 21.0503 6.60712C21.1859 6.69057 21.2537 6.84182 21.2537 7.06088C21.2537 7.27993 21.1337 7.49377 20.8938 7.70239C20.6539 7.90058 20.3931 7.99967 20.1115 7.99967ZM21.9913 15.1971C21.6053 15.1971 21.3341 15.0198 21.1776 14.6651C21.0316 14.3209 20.9586 13.8724 20.9586 13.3195C20.9586 13.2048 20.9638 13.0014 20.9742 12.7093C20.9846 12.4068 21.0003 11.9896 21.0212 11.4576C21.0316 11.1447 21.0629 10.9308 21.115 10.8161C21.1776 10.7013 21.3445 10.644 21.6157 10.644C21.8661 10.644 22.0121 10.6961 22.0538 10.8004C22.106 10.8943 22.1321 11.0925 22.1321 11.395C22.1321 11.7079 22.1164 12.0417 22.0851 12.3964C22.0643 12.751 22.0538 13.0953 22.0538 13.4291C22.0538 13.7524 22.0695 13.9923 22.1008 14.1488C22.1321 14.2948 22.2103 14.3679 22.3355 14.3679C22.5232 14.3679 22.7266 14.2688 22.9457 14.0706C23.1647 13.862 23.3838 13.6012 23.6029 13.2882C23.8323 12.9649 24.0462 12.6207 24.2444 12.2556C24.453 11.88 24.6355 11.5202 24.792 11.1759C24.8129 10.4666 24.8963 9.99201 25.0423 9.7521C25.1884 9.51218 25.3761 9.39223 25.6056 9.39223C25.8664 9.39223 26.0437 9.47568 26.1376 9.64257C26.2315 9.80947 26.2784 9.95551 26.2784 10.0807C26.2784 10.2371 26.2367 10.378 26.1533 10.5031C26.0698 10.6283 25.9864 10.8004 25.9029 11.0195C25.8195 11.2385 25.7777 11.5723 25.7777 12.0209C25.7777 12.1669 25.7882 12.3286 25.809 12.5059C25.8403 12.6728 25.9029 12.8188 25.9968 12.944C26.1011 13.0588 26.2524 13.1161 26.4505 13.1161C26.6592 13.1161 26.8574 13.0327 27.0451 12.8658C27.2433 12.6885 27.4519 12.386 27.671 11.9583L27.8431 12.0991C27.6032 12.6728 27.332 13.0744 27.0295 13.3039C26.7374 13.5334 26.4558 13.6481 26.1846 13.6481C25.8403 13.6481 25.5587 13.5125 25.3396 13.2413C25.131 12.9597 24.9693 12.6102 24.8546 12.193C24.6042 12.6624 24.3174 13.1266 23.994 13.5855C23.6811 14.0445 23.3525 14.4252 23.0083 14.7277C22.6641 15.0407 22.325 15.1971 21.9913 15.1971ZM29.066 15.2754C28.3984 15.2754 27.8821 15.0928 27.517 14.7277C27.1623 14.3731 26.985 13.9245 26.985 13.3821C26.985 12.9232 27.0997 12.4381 27.3292 11.927C27.5691 11.4054 27.8873 10.9204 28.2836 10.4718C28.68 10.0129 29.1181 9.64257 29.598 9.36093C30.0778 9.07929 30.5576 8.93847 31.0375 8.93847C31.3087 8.93847 31.5642 9.01149 31.8041 9.15753C32.0545 9.29313 32.1797 9.56956 32.1797 9.9868C32.1797 10.3832 32.0649 10.7535 31.8354 11.0977C31.606 11.4419 31.2982 11.7497 30.9123 12.0209C30.5263 12.2921 30.0987 12.5163 29.6293 12.6937C29.1703 12.8606 28.7061 12.9701 28.2367 13.0222C28.2263 13.064 28.2158 13.1109 28.2054 13.1631C28.2054 13.2048 28.2054 13.2778 28.2054 13.3821C28.2054 13.4343 28.2106 13.5282 28.2211 13.6638C28.2419 13.7889 28.2889 13.9245 28.3619 14.0706C28.4349 14.2166 28.5549 14.3418 28.7218 14.4461C28.8887 14.5504 29.1181 14.6026 29.4102 14.6026C29.8483 14.6026 30.2864 14.4826 30.7245 14.2427C31.1731 13.9923 31.5903 13.6638 31.9763 13.2569C32.3726 12.8501 32.7012 12.3964 32.962 11.8957L33.2749 12.146C32.9933 12.7719 32.6282 13.3195 32.1797 13.7889C31.7416 14.2583 31.2513 14.6234 30.7089 14.8842C30.1769 15.145 29.6293 15.2754 29.066 15.2754ZM28.4088 12.4433C28.68 12.412 28.9825 12.3182 29.3163 12.1617C29.6501 12.0052 29.9683 11.807 30.2708 11.5671C30.5837 11.3272 30.8393 11.0664 31.0375 10.7848C31.2356 10.4927 31.3347 10.2006 31.3347 9.90857C31.3347 9.79382 31.3139 9.71559 31.2722 9.67387C31.2304 9.63214 31.1626 9.61128 31.0688 9.61128C30.8288 9.61128 30.5785 9.69994 30.3177 9.87727C30.0569 10.0442 29.8014 10.2684 29.551 10.5501C29.3007 10.8213 29.0764 11.1238 28.8782 11.4576C28.68 11.7914 28.5236 12.12 28.4088 12.4433ZM35.4783 14.9937C35.0923 14.9937 34.7794 14.8894 34.5395 14.6808C34.2996 14.4826 34.1796 14.2114 34.1796 13.8672C34.1796 13.5751 34.2526 13.2622 34.3987 12.9284C34.5447 12.5946 34.6907 12.266 34.8368 11.9426C34.9932 11.6193 35.0715 11.3324 35.0715 11.0821C35.0715 10.8421 34.9932 10.644 34.8368 10.4875C34.6803 10.3206 34.4978 10.185 34.2892 10.0807C34.0597 10.6544 33.7989 11.2125 33.5068 11.7549C33.2252 12.2869 32.9957 12.7041 32.8184 13.0066L32.5837 12.5528C32.7297 12.2816 32.9227 11.8957 33.1626 11.395C33.4025 10.8943 33.632 10.3362 33.851 9.72081C33.7467 9.6165 33.6946 9.47568 33.6946 9.29835C33.6946 9.02714 33.778 8.77158 33.9449 8.53166C34.1118 8.29175 34.2735 8.17179 34.43 8.17179C34.5551 8.17179 34.6438 8.24481 34.696 8.39084C34.7586 8.52645 34.7898 8.62033 34.7898 8.67248C34.7898 8.72464 34.7638 8.81852 34.7116 8.95412C34.6699 9.08972 34.6386 9.18882 34.6177 9.25141C34.6282 9.36615 34.7168 9.48089 34.8837 9.59563C35.0611 9.69994 35.2592 9.82512 35.4783 9.97115C35.6973 10.1172 35.8903 10.2997 36.0572 10.5188C36.2241 10.7378 36.3076 11.0143 36.3076 11.3481C36.3076 11.6506 36.2398 11.9583 36.1042 12.2712C35.9686 12.5841 35.833 12.8762 35.6973 13.1474C35.5617 13.4186 35.4939 13.6533 35.4939 13.8515C35.4939 13.9976 35.5305 14.0967 35.6035 14.1488C35.6869 14.1905 35.7808 14.2114 35.8851 14.2114C36.1355 14.2114 36.3962 14.1384 36.6674 13.9923C36.9386 13.8359 37.2046 13.6377 37.4654 13.3978C37.7262 13.1579 37.9557 12.9075 38.1539 12.6467C38.3521 12.3755 38.5033 12.1304 38.6076 11.9113L38.9831 12.193C38.785 12.6415 38.4981 13.0848 38.1226 13.5229C37.7471 13.9506 37.3298 14.3053 36.8708 14.5869C36.4119 14.8581 35.9477 14.9937 35.4783 14.9937ZM42.821 15.1815C42.4663 15.1815 42.2264 15.025 42.1012 14.7121C41.9865 14.4096 41.9187 14.0445 41.8978 13.6168C41.9083 13.4916 41.9135 13.3195 41.9135 13.1005C41.9239 12.8814 41.9343 12.6989 41.9448 12.5528C41.7257 12.9492 41.4858 13.3404 41.225 13.7263C40.9642 14.1123 40.6878 14.4304 40.3957 14.6808C40.1037 14.9311 39.796 15.0563 39.4726 15.0563C39.1179 15.0563 38.8259 14.8998 38.5964 14.5869C38.3669 14.2635 38.2522 13.8776 38.2522 13.4291C38.2522 13.1266 38.2991 12.7771 38.393 12.3807C38.4973 11.9844 38.6225 11.5984 38.7685 11.2229C38.925 10.8474 39.0814 10.5344 39.2379 10.2841C39.4048 10.0337 39.5508 9.90857 39.676 9.90857C39.749 9.90857 39.8742 9.95029 40.0515 10.0337C40.2393 10.1172 40.354 10.2267 40.3957 10.3623C40.281 10.5292 40.1402 10.7848 39.9733 11.129C39.8168 11.4732 39.676 11.8435 39.5508 12.2399C39.4361 12.6259 39.3787 12.9805 39.3787 13.3039C39.3787 13.3665 39.3839 13.476 39.3944 13.6325C39.4152 13.7785 39.4622 13.9141 39.5352 14.0393C39.6082 14.1645 39.7177 14.227 39.8638 14.227C40.0932 14.227 40.3332 14.0862 40.5835 13.8046C40.8443 13.5229 41.1051 13.1683 41.3658 12.7406C41.6266 12.3129 41.8717 11.8748 42.1012 11.4263C42.1951 10.9778 42.2733 10.6544 42.3359 10.4562C42.3985 10.258 42.4611 10.1328 42.5237 10.0807C42.5967 10.0285 42.6802 10.0024 42.774 10.0024C42.9722 10.0024 43.1235 10.0442 43.2278 10.1276C43.3425 10.2006 43.3999 10.3102 43.3999 10.4562C43.3999 10.4666 43.3895 10.5136 43.3686 10.597C43.3477 10.67 43.3321 10.717 43.3217 10.7378C43.2591 10.9569 43.2017 11.2229 43.1496 11.5358C43.0974 11.8383 43.0557 12.1669 43.0244 12.5216C42.9931 12.8658 42.9774 13.2152 42.9774 13.5699C42.9774 13.8202 42.9931 14.0184 43.0244 14.1645C43.0557 14.3001 43.1339 14.3679 43.2591 14.3679C43.4051 14.3679 43.572 14.2792 43.7598 14.1019C43.958 13.9245 44.1614 13.6898 44.37 13.3978C44.589 13.1057 44.7977 12.7875 44.9959 12.4433C45.2045 12.0887 45.3922 11.734 45.5591 11.3794C45.5591 10.8369 45.5956 10.4249 45.6687 10.1433C45.7521 9.86163 45.8564 9.66865 45.9816 9.56434C46.1172 9.4496 46.2632 9.39223 46.4197 9.39223C46.6805 9.39223 46.8578 9.47568 46.9517 9.64257C47.056 9.80947 47.1082 9.95029 47.1082 10.065C47.1082 10.1693 47.0821 10.2684 47.0299 10.3623C46.9778 10.4458 46.936 10.524 46.9048 10.597C46.8317 10.7535 46.7587 10.9412 46.6857 11.1603C46.6231 11.3794 46.5918 11.6558 46.5918 11.9896C46.5918 12.1669 46.6075 12.3494 46.6388 12.5372C46.6805 12.7145 46.7483 12.8606 46.8422 12.9753C46.9465 13.0901 47.0925 13.1474 47.2803 13.1474C47.468 13.1474 47.6558 13.064 47.8435 12.8971C48.0417 12.7302 48.2556 12.4172 48.4851 11.9583L48.7823 12.193C48.5529 12.7354 48.2921 13.1109 48 13.3195C47.7079 13.5177 47.4263 13.6168 47.1551 13.6168C46.8109 13.6168 46.5188 13.4916 46.2789 13.2413C46.039 12.991 45.8512 12.6832 45.7156 12.3181C45.4548 12.7667 45.1628 13.2152 44.8394 13.6638C44.5265 14.1019 44.1979 14.4617 43.8537 14.7434C43.5094 15.0355 43.1652 15.1815 42.821 15.1815ZM49.0148 15.3223C48.6706 15.3223 48.3733 15.2076 48.123 14.9781C47.8622 14.7486 47.7318 14.4044 47.7318 13.9454C47.7318 13.5803 47.8153 13.1839 47.9822 12.7563C48.1491 12.3286 48.3785 11.9061 48.6706 11.4889C48.9627 11.0716 49.2965 10.6961 49.672 10.3623C50.0475 10.0181 50.4491 9.74167 50.8768 9.53305C51.3045 9.32442 51.7321 9.22011 52.1598 9.22011C52.6084 9.22011 52.9891 9.33486 53.302 9.56434C53.615 9.79382 53.7714 10.0963 53.7714 10.4718C53.7714 10.7535 53.6723 10.9569 53.4741 11.0821C53.276 11.2072 53.0413 11.2437 52.77 11.1916C52.7909 11.0977 52.8066 11.0038 52.817 10.91C52.8378 10.8161 52.8483 10.717 52.8483 10.6127C52.8483 10.404 52.8066 10.2163 52.7231 10.0494C52.6397 9.88249 52.4623 9.79904 52.1911 9.79904C51.899 9.79904 51.6018 9.89813 51.2993 10.0963C50.9968 10.2945 50.7047 10.5553 50.423 10.8787C50.1518 11.1916 49.9067 11.541 49.6877 11.927C49.4686 12.3025 49.2965 12.6728 49.1713 13.0379C49.0461 13.403 48.9836 13.7316 48.9836 14.0236C48.9836 14.3574 49.1035 14.5243 49.3434 14.5243C49.5833 14.5243 49.8493 14.4096 50.1414 14.1801C50.4335 13.9402 50.7255 13.6429 51.0176 13.2882C51.3201 12.9336 51.607 12.5737 51.8782 12.2086C52.1494 11.8331 52.3841 11.515 52.5823 11.2542C52.6136 11.202 52.6553 11.1759 52.7075 11.1759C52.7492 11.1864 52.8274 11.2125 52.9422 11.2542C53.0673 11.2855 53.1821 11.3376 53.2864 11.4106C53.3907 11.4837 53.4428 11.5775 53.4428 11.6923C53.4428 11.7966 53.3959 11.9322 53.302 12.0991C53.2186 12.2556 53.1143 12.4329 52.9891 12.6311C52.8744 12.8188 52.77 13.0118 52.6762 13.21C52.5927 13.3978 52.551 13.5803 52.551 13.7576C52.551 13.8932 52.5875 14.0236 52.6605 14.1488C52.7335 14.2635 52.8535 14.3209 53.0204 14.3209C53.2707 14.3209 53.6202 14.1384 54.0687 13.7733C54.5277 13.3978 54.9919 12.7667 55.4613 11.88L55.7586 12.1773C55.5082 12.7406 55.2057 13.2413 54.851 13.6794C54.5068 14.1071 54.1417 14.4409 53.7558 14.6808C53.3698 14.9311 52.9787 15.0563 52.5823 15.0563C52.1546 15.0563 51.8365 14.9207 51.6278 14.6495C51.4192 14.3783 51.3045 14.0862 51.2836 13.7733C51.2836 13.7524 51.2836 13.7368 51.2836 13.7263C51.2836 13.7159 51.2836 13.7055 51.2836 13.6951C50.8664 14.1957 50.4804 14.5921 50.1258 14.8842C49.7815 15.1763 49.4112 15.3223 49.0148 15.3223ZM56.4366 15.0563C55.9464 15.0563 55.6021 14.8946 55.4039 14.5713C55.2162 14.2375 55.1223 13.8463 55.1223 13.3978C55.1223 12.8866 55.2162 12.2869 55.4039 11.5984C55.5917 10.91 55.8368 10.1902 56.1393 9.43917C56.4523 8.6777 56.7913 7.93709 57.1564 7.21734C57.5319 6.48717 57.9074 5.83001 58.2829 5.24586C58.6584 4.66172 59.0027 4.19754 59.3156 3.85331C59.639 3.49866 59.8997 3.32133 60.0979 3.32133C60.2335 3.32133 60.3483 3.39434 60.4422 3.54038C60.536 3.67598 60.6091 3.84288 60.6612 4.04107C60.7238 4.22883 60.7551 4.40616 60.7551 4.57306C60.7551 4.8547 60.6821 5.225 60.536 5.68397C60.4004 6.13251 60.2022 6.62799 59.9415 7.1704C59.6911 7.71282 59.3886 8.27088 59.034 8.84459C58.6897 9.40787 58.3038 9.94507 57.8761 10.4562C57.4589 10.9673 57.0103 11.4106 56.5305 11.7862C56.4888 12.0469 56.447 12.3077 56.4053 12.5685C56.374 12.8188 56.3584 13.0483 56.3584 13.2569C56.3584 13.6325 56.421 13.9089 56.5461 14.0862C56.6713 14.2531 56.833 14.3366 57.0312 14.3366C57.292 14.3366 57.558 14.2166 57.8292 13.9767C58.1108 13.7263 58.3768 13.4134 58.6271 13.0379C58.8879 12.6519 59.1122 12.2556 59.3 11.8488L59.6755 12.0522C59.2269 12.9805 58.7262 13.7159 58.1734 14.2583C57.6205 14.7903 57.0416 15.0563 56.4366 15.0563ZM56.8121 10.8161C57.1668 10.4301 57.5006 10.0129 57.8135 9.56434C58.1369 9.10537 58.429 8.64119 58.6897 8.17179C58.9609 7.70239 59.1956 7.24864 59.3938 6.81053C59.592 6.37242 59.7433 5.98126 59.8476 5.63703C59.9623 5.28237 60.0249 5.00073 60.0353 4.79211C60.0353 4.78168 60.0353 4.77646 60.0353 4.77646C60.0353 4.76603 60.0353 4.7556 60.0353 4.74517C59.9519 4.74517 59.8163 4.86513 59.6285 5.10505C59.4512 5.33453 59.2374 5.65268 58.987 6.05949C58.7367 6.4663 58.4759 6.93049 58.2047 7.45204C57.9439 7.9736 57.6883 8.52645 57.438 9.11059C57.1981 9.6843 56.9895 10.2528 56.8121 10.8161ZM63.8862 15.1815C63.5629 15.1815 63.2812 15.0772 63.0413 14.8686C62.8014 14.6599 62.6084 14.3992 62.4624 14.0862C62.3164 13.7733 62.2068 13.4551 62.1338 13.1318C62.0608 12.798 62.0243 12.5111 62.0243 12.2712C62.1703 12.2399 62.3529 12.193 62.5719 12.1304C62.791 12.0678 63.0153 11.9844 63.2447 11.88C63.4742 11.7653 63.662 11.6297 63.808 11.4732C63.9645 11.3063 64.0427 11.1081 64.0427 10.8787C64.0427 10.6909 63.9801 10.5396 63.855 10.4249C63.7402 10.3102 63.5733 10.2528 63.3543 10.2528C63.0622 10.2528 62.7858 10.3519 62.525 10.5501C62.2642 10.7378 62.0191 10.9882 61.7896 11.3011C61.5705 11.6141 61.3671 11.9531 61.1794 12.3181C61.0021 12.6832 60.8404 13.0379 60.6943 13.3821C60.5587 13.7263 60.444 14.0236 60.3501 14.274C60.2354 14.5869 60.1258 14.7955 60.0215 14.8998C59.9172 15.0146 59.766 15.072 59.5678 15.072C59.4948 15.072 59.4061 15.0511 59.3018 15.0094C59.2079 14.9676 59.1245 14.8633 59.0514 14.6964C58.9888 14.5295 58.9576 14.2635 58.9576 13.8985C58.9576 13.2622 59.0462 12.5633 59.2235 11.8018C59.4009 11.0403 59.6356 10.2684 59.9276 9.48611C60.2301 8.69334 60.5587 7.93709 60.9134 7.21734C61.268 6.4976 61.6279 5.85087 61.993 5.27716C62.3581 4.70345 62.6971 4.24969 63.01 3.9159C63.3334 3.5821 63.5994 3.41521 63.808 3.41521C63.9853 3.41521 64.1314 3.52473 64.2461 3.74379C64.3713 3.95241 64.4339 4.22362 64.4339 4.55741C64.4339 4.91207 64.3556 5.30845 64.1992 5.74656C64.0427 6.17423 63.8184 6.61234 63.5264 7.06088C63.2447 7.49898 62.9057 7.91623 62.5093 8.31261C62.113 8.70899 61.6749 9.048 61.195 9.32964C60.903 10.0077 60.6787 10.6805 60.5222 11.3481C60.3658 12.0052 60.2667 12.5894 60.2249 13.1005C60.4127 12.6728 60.6265 12.2347 60.8664 11.7862C61.1064 11.3376 61.3724 10.9204 61.6644 10.5344C61.9565 10.1381 62.2694 9.8199 62.6032 9.57999C62.9475 9.34007 63.3125 9.22011 63.6985 9.22011C64.1157 9.22011 64.4808 9.36615 64.7938 9.65822C65.1067 9.95029 65.2632 10.3154 65.2632 10.7535C65.2632 11.0664 65.1797 11.3376 65.0128 11.5671C64.8459 11.7966 64.6373 11.9896 64.3869 12.146C64.147 12.2921 63.9019 12.4016 63.6515 12.4746C63.4012 12.5476 63.1874 12.5894 63.01 12.5998C63.0413 12.7354 63.0831 12.9075 63.1352 13.1161C63.1978 13.3248 63.276 13.5282 63.3699 13.7263C63.4638 13.9245 63.5837 14.0914 63.7298 14.227C63.8758 14.3626 64.0479 14.4304 64.2461 14.4304C64.5069 14.4304 64.7729 14.3105 65.0441 14.0706C65.3257 13.8307 65.5969 13.5125 65.8577 13.1161C66.1289 12.7197 66.3689 12.2816 66.5775 11.8018L66.7965 12.0678C66.6192 12.5894 66.3741 13.0901 66.0611 13.5699C65.7586 14.0497 65.4196 14.4357 65.0441 14.7277C64.6686 15.0302 64.2826 15.1815 63.8862 15.1815ZM61.6488 8.26567C61.9304 8.01532 62.2277 7.7076 62.5406 7.34252C62.8536 6.967 63.1196 6.57061 63.3386 6.15337C63.5681 5.72569 63.6881 5.31888 63.6985 4.93293C63.6985 4.9225 63.6985 4.91728 63.6985 4.91728C63.6985 4.90685 63.6985 4.89642 63.6985 4.88599C63.5942 4.92772 63.4273 5.11026 63.1978 5.43362C62.9787 5.74656 62.7336 6.14815 62.4624 6.63842C62.1912 7.12868 61.92 7.6711 61.6488 8.26567Z" fill="#29393D"/>
<path d="M28.2167 23.8063C28.7771 23.8063 29.2004 23.9229 29.4867 24.1561C29.7772 24.3851 29.9224 24.7246 29.9224 25.1745C29.9224 25.6326 29.7772 25.9782 29.4867 26.2114C29.2004 26.4445 28.7771 26.5611 28.2167 26.5611H27.3823V28.1011H26.9406V23.8063H28.2167ZM28.2167 26.1807C28.6544 26.1807 28.9734 26.101 29.1738 25.9414C29.3784 25.7778 29.4806 25.5222 29.4806 25.1745C29.4806 24.8309 29.3784 24.5814 29.1738 24.426C28.9734 24.2665 28.6544 24.1867 28.2167 24.1867H27.3823V26.1807H28.2167ZM33.4455 28.1011C33.335 27.5939 33.2307 27.1787 33.1326 26.8556H31.0466C30.9484 27.1787 30.8441 27.5939 30.7337 28.1011H30.2796C30.4923 27.2258 30.7234 26.4486 30.9729 25.7696C31.2224 25.0866 31.519 24.4321 31.8626 23.8063H32.3227C32.6622 24.4281 32.9567 25.0804 33.2062 25.7635C33.4557 26.4425 33.6868 27.2217 33.8995 28.1011H33.4455ZM33.0283 26.4875C32.7788 25.694 32.4659 24.9496 32.0896 24.2542C31.7133 24.9496 31.4004 25.694 31.1509 26.4875H33.0283ZM34.8451 23.8063H35.2868V28.1011H34.8451V23.8063ZM39.8184 27.2605C39.8184 27.3873 39.8225 27.5366 39.8307 27.7084C39.8389 27.8229 39.843 27.8986 39.843 27.9354C39.843 28.0459 39.7898 28.1011 39.6834 28.1011H39.3767V27.7698C39.3767 27.5325 39.2969 27.3055 39.1374 27.0887L37.1066 24.4137V28.1011H36.6649V23.8063H37.0207C37.0739 23.8063 37.1148 23.8145 37.1434 23.8309C37.1761 23.8431 37.2129 23.8759 37.2538 23.929L39.3767 26.7206V23.8063H39.8184V27.2605ZM43.5575 23.8063C43.5738 23.88 43.582 23.929 43.582 23.9536C43.582 24.0231 43.5636 24.0783 43.5268 24.1192C43.49 24.1561 43.4348 24.1745 43.3611 24.1745H42.2322V28.1011H41.7905V24.1745H40.4653V23.8063H43.5575ZM45.6262 28.1624C45.344 28.1624 45.0842 28.1195 44.847 28.0336C44.6098 27.9436 44.4216 27.8229 44.2826 27.6716C44.1435 27.5203 44.074 27.3546 44.074 27.1746C44.074 27.0928 44.1026 27.0274 44.1598 26.9783C44.2212 26.9251 44.301 26.8965 44.3991 26.8924C44.4646 27.1828 44.6036 27.4037 44.8163 27.555C45.029 27.7064 45.3031 27.782 45.6385 27.782C45.982 27.782 46.2581 27.7023 46.4667 27.5428C46.6794 27.3832 46.7858 27.1746 46.7858 26.917C46.7858 26.7656 46.7469 26.6368 46.6692 26.5304C46.5956 26.4241 46.4729 26.33 46.3011 26.2482C46.1293 26.1623 45.8921 26.0805 45.5894 26.0028C45.2376 25.9087 44.9615 25.8105 44.7611 25.7083C44.5607 25.6019 44.4155 25.4833 44.3255 25.3524C44.2396 25.2175 44.1967 25.0518 44.1967 24.8555C44.1967 24.5119 44.3235 24.2419 44.577 24.0456C44.8306 23.8452 45.1804 23.745 45.6262 23.745C46.0148 23.745 46.3379 23.837 46.5956 24.0211C46.8573 24.201 47.0332 24.4567 47.1232 24.788C47.07 24.8412 46.9882 24.8677 46.8778 24.8677C46.7633 24.8677 46.6794 24.8125 46.6263 24.7021C46.5363 24.5221 46.3992 24.379 46.2152 24.2726C46.0352 24.1663 45.8389 24.1131 45.6262 24.1131C45.3031 24.1131 45.0576 24.1765 44.89 24.3033C44.7223 24.4301 44.6384 24.6142 44.6384 24.8555C44.6384 24.9782 44.6691 25.0825 44.7304 25.1684C44.7918 25.2502 44.894 25.3259 45.0372 25.3954C45.1804 25.4649 45.3828 25.5365 45.6446 25.6101C46.0823 25.7328 46.4115 25.8494 46.6324 25.9598C46.8573 26.0703 47.0148 26.195 47.1048 26.3341C47.1948 26.4732 47.2398 26.6552 47.2398 26.8801C47.2398 27.1378 47.1743 27.3648 47.0435 27.5612C46.9126 27.7534 46.7244 27.9027 46.479 28.009C46.2377 28.1113 45.9534 28.1624 45.6262 28.1624Z" fill="#29393D"/>
<path fill-rule="evenodd" clip-rule="evenodd" d="M65.1329 29.2388H53.9449C51.0409 23.9382 43.2048 20.1406 33.9937 20.1406C24.7827 20.1406 16.9466 23.9382 14.0426 29.2388H3C4.62311 23.1171 18.1597 18 33.7371 18C49.3146 18 63.4369 23.1171 65.1329 29.2388Z" fill="#29393D"/>
<path fill-rule="evenodd" clip-rule="evenodd" d="M71.1934 29.2388H60.0045C57.1005 23.9382 49.2644 20.1406 40.0534 20.1406C30.8423 20.1406 23.0062 23.9382 20.1022 29.2388H9.06055C10.6837 23.1171 24.2202 18 39.7977 18C55.3752 18 69.4975 23.1171 71.1934 29.2388Z" fill="#4CA0B2"/>
</svg>
