<svg width="105" height="37" viewBox="0 0 105 37" fill="none" xmlns="http://www.w3.org/2000/svg">
<path d="M39.988 0.637712C26.4091 -1.49021 6.68848 14.9158 6.68848 14.9158L16.3238 27.0167C16.3238 27.0167 24.2406 19.2858 37.8373 21.4404C47.8772 23.0314 53.333 37.1998 63.4324 36.5292C72.564 35.9229 85.6819 16.5201 85.6819 16.5201L80.0336 0.637712C80.0336 0.637712 72.5341 14.317 63.4324 14.9158C53.3601 15.5784 50.0023 2.20705 39.988 0.637712Z" fill="url(#paint0_linear_105_5)" fill-opacity="0.5"/>
<path d="M6.45952 22.8635C6.3895 22.9265 6.26696 22.979 6.0919 23.021C5.91685 23.063 5.73479 23.084 5.54573 23.084C5.30766 23.084 5.1256 23.0525 4.99956 22.9895C4.87352 22.9265 4.77549 22.8179 4.70547 22.6639L3.92823 20.9203C3.80919 20.6613 3.68315 20.4862 3.55011 20.3952C3.41707 20.3042 3.22101 20.2586 2.96193 20.2586H2.41576V23H0.79825V15.6477H3.29803C4.23632 15.6477 4.95755 15.8473 5.46171 16.2464C5.96586 16.6455 6.21794 17.2162 6.21794 17.9584C6.21794 18.4136 6.10591 18.8057 5.88184 19.1348C5.66477 19.4569 5.34617 19.702 4.92604 19.87C5.1151 20.0661 5.27265 20.3042 5.39869 20.5842L6.45952 22.8635ZM3.193 19.1243C3.68315 19.1243 4.03676 19.0333 4.25383 18.8512C4.4709 18.6691 4.57943 18.3716 4.57943 17.9584C4.57943 17.5453 4.4709 17.2477 4.25383 17.0656C4.03676 16.8766 3.68315 16.7821 3.193 16.7821H2.41576V19.1243H3.193ZM7.74773 15.6477H9.36524V23H7.74773V15.6477ZM16.8815 15.6477C16.7484 17.0972 16.4824 18.4241 16.0832 19.6284C15.6841 20.8328 15.1414 21.9567 14.4552 23H13.0373C12.3581 21.9707 11.8189 20.8573 11.4198 19.66C11.0207 18.4556 10.7476 17.1182 10.6005 15.6477H12.26C12.3861 16.8381 12.5751 17.9164 12.8272 18.8827C13.0793 19.849 13.3839 20.6648 13.741 21.33C14.0981 20.6648 14.4027 19.849 14.6548 18.8827C14.9069 17.9164 15.0959 16.8381 15.222 15.6477H16.8815ZM22.4975 21.8867C22.4975 22.3138 22.459 22.6079 22.382 22.7689C22.305 22.923 22.1614 23 21.9514 23H17.7816V15.6477H22.382V16.761H19.3991V18.6516H21.8778V19.765H19.3991V21.8867H22.4975ZM29.4252 22.8635C29.3552 22.9265 29.2326 22.979 29.0576 23.021C28.8825 23.063 28.7005 23.084 28.5114 23.084C28.2733 23.084 28.0913 23.0525 27.9652 22.9895C27.8392 22.9265 27.7412 22.8179 27.6711 22.6639L26.8939 20.9203C26.7749 20.6613 26.6488 20.4862 26.5158 20.3952C26.3827 20.3042 26.1867 20.2586 25.9276 20.2586H25.3814V23H23.7639V15.6477H26.2637C27.202 15.6477 27.9232 15.8473 28.4274 16.2464C28.9315 16.6455 29.1836 17.2162 29.1836 17.9584C29.1836 18.4136 29.0716 18.8057 28.8475 19.1348C28.6304 19.4569 28.3118 19.702 27.8917 19.87C28.0808 20.0661 28.2383 20.3042 28.3644 20.5842L29.4252 22.8635ZM26.1587 19.1243C26.6488 19.1243 27.0024 19.0333 27.2195 18.8512C27.4366 18.6691 27.5451 18.3716 27.5451 17.9584C27.5451 17.5453 27.4366 17.2477 27.2195 17.0656C27.0024 16.8766 26.6488 16.7821 26.1587 16.7821H25.3814V19.1243H26.1587ZM38.9375 15.6477C38.7694 17.2162 38.5594 18.5711 38.3073 19.7125C38.0552 20.8538 37.7226 21.9497 37.3095 23H35.6079C35.2788 22.0197 35.0303 21.2214 34.8622 20.6053C34.7012 19.9891 34.5611 19.3203 34.4421 18.5991C34.309 19.3834 34.1585 20.0906 33.9904 20.7208C33.8224 21.344 33.5843 22.1037 33.2762 23H31.5747C31.1475 21.9707 30.8009 20.8888 30.5348 19.7545C30.2688 18.6131 30.0377 17.2442 29.8416 15.6477H31.4381C31.5852 17.0902 31.7252 18.193 31.8583 18.9562C31.9913 19.7125 32.1804 20.5142 32.4254 21.3615C32.7125 20.4862 32.9401 19.695 33.1082 18.9877C33.2762 18.2735 33.5003 17.1602 33.7804 15.6477H35.0618C35.3979 17.2652 35.6499 18.4206 35.818 19.1138C35.9861 19.8 36.1996 20.5457 36.4587 21.351C36.6968 20.5177 36.8753 19.723 36.9944 18.9667C37.1134 18.2105 37.2429 17.1042 37.383 15.6477H38.9375ZM44.2992 23C44.1942 22.2508 44.0927 21.6451 43.9946 21.1829H41.1377C41.0397 21.6451 40.9382 22.2508 40.8332 23H39.2577C39.5237 20.4582 40.357 18.0074 41.7574 15.6477H43.3854C44.7789 17.9934 45.6086 20.4442 45.8747 23H44.2992ZM43.7426 20.0276C43.4485 18.8722 43.0563 17.8114 42.5662 16.8451C42.076 17.8114 41.6839 18.8722 41.3898 20.0276H43.7426ZM51.2646 21.8867V23H46.9372V15.6477H48.5547V21.8867H51.2646ZM58.2986 22.9475C58.1095 23.0525 57.7594 23.105 57.2482 23.105C56.8561 23.105 56.5935 22.993 56.4605 22.7689L55.074 20.5002C54.948 20.2902 54.843 20.1431 54.7589 20.0591C54.6819 19.9751 54.5944 19.919 54.4964 19.891C54.3983 19.863 54.2513 19.849 54.0552 19.849H53.9817V23H52.3642V15.6477H53.9817V18.7777H54.4544L56.5025 15.6477H58.2145L55.8093 19.1663C56.0964 19.3694 56.3554 19.6705 56.5865 20.0696L58.2986 22.9475ZM64.2511 15.6477C65.2034 15.6477 65.9281 15.8508 66.4253 16.2569C66.9225 16.663 67.171 17.2582 67.171 18.0425C67.171 18.8477 66.9155 19.4709 66.4043 19.912C65.9001 20.3532 65.1824 20.5737 64.2511 20.5737H63.5789V23H61.9614V15.6477H64.2511ZM64.1461 19.3764C64.6362 19.3764 64.9899 19.2713 65.2069 19.0613C65.424 18.8512 65.5325 18.5116 65.5325 18.0425C65.5325 17.5803 65.424 17.2477 65.2069 17.0446C64.9899 16.8416 64.6362 16.74 64.1461 16.74H63.5789V19.3764H64.1461ZM72.8243 23C72.7192 22.2508 72.6177 21.6451 72.5197 21.1829H69.6628C69.5647 21.6451 69.4632 22.2508 69.3582 23H67.7827C68.0488 20.4582 68.882 18.0074 70.2825 15.6477H71.9105C73.3039 17.9934 74.1337 20.4442 74.3998 23H72.8243ZM72.2676 20.0276C71.9735 18.8722 71.5814 17.8114 71.0912 16.8451C70.6011 17.8114 70.2089 18.8722 69.9149 20.0276H72.2676ZM75.5883 15.6477H77.2058V23H75.5883V15.6477ZM84.8481 21.5611C84.8481 21.7781 84.8551 22.0337 84.8691 22.3278C84.8831 22.5239 84.8901 22.6534 84.8901 22.7164C84.8901 22.9055 84.799 23 84.617 23H83.2516V22.6429C83.2516 22.2928 83.115 21.9042 82.8419 21.477L80.5207 17.9059V23H78.9242V15.6477H80.3737C80.4647 15.6477 80.5382 15.6617 80.5942 15.6897C80.6573 15.7107 80.7168 15.7667 80.7728 15.8578L83.2516 19.6284V15.6477H84.8481V21.5611ZM91.0365 15.6477C91.0646 15.8158 91.0786 15.9698 91.0786 16.1098C91.0786 16.3479 91.04 16.523 90.963 16.635C90.886 16.747 90.7635 16.8031 90.5954 16.8031H89.188V23H87.5915V16.8031H85.7429V15.6477H91.0365ZM94.6831 23.105C93.8218 23.105 93.1461 22.958 92.6559 22.6639C92.1658 22.3698 91.9207 21.9672 91.9207 21.456C91.9207 21.2109 92.0222 21.0184 92.2253 20.8783C92.4354 20.7383 92.7295 20.6648 93.1076 20.6578C93.1496 21.0709 93.3071 21.3895 93.5802 21.6136C93.8603 21.8376 94.2349 21.9497 94.7041 21.9497C95.5653 21.9497 95.996 21.6311 95.996 20.9939C95.996 20.7418 95.8769 20.5352 95.6389 20.3742C95.4078 20.2131 95.0017 20.0486 94.4205 19.8805C93.5942 19.6495 92.9885 19.3554 92.6034 18.9982C92.2183 18.6341 92.0257 18.1685 92.0257 17.6013C92.0257 16.9641 92.2708 16.4635 92.761 16.0993C93.2581 15.7282 93.9338 15.5427 94.7881 15.5427C95.4743 15.5427 96.0625 15.7072 96.5527 16.0363C97.0428 16.3584 97.3789 16.8101 97.561 17.3912C97.4419 17.5103 97.2774 17.6153 97.0673 17.7063C96.8573 17.7974 96.6717 17.8429 96.5106 17.8429C96.3846 17.8429 96.2866 17.8184 96.2166 17.7694C96.1465 17.7133 96.073 17.6118 95.996 17.4648C95.8559 17.1917 95.6949 16.9956 95.5128 16.8766C95.3308 16.7575 95.0892 16.698 94.7881 16.698C94.0389 16.698 93.6643 16.9466 93.6643 17.4438C93.6643 17.6398 93.7028 17.8009 93.7798 17.9269C93.8568 18.046 93.9899 18.158 94.1789 18.263C94.368 18.3611 94.6551 18.4731 95.0402 18.5991C95.7404 18.8302 96.2761 19.0438 96.6472 19.2398C97.0183 19.4289 97.2774 19.6354 97.4244 19.8595C97.5785 20.0836 97.6555 20.3602 97.6555 20.6893C97.6555 21.1654 97.5295 21.5856 97.2774 21.9497C97.0323 22.3138 96.6857 22.5974 96.2376 22.8004C95.7894 23.0035 95.2713 23.105 94.6831 23.105Z" fill="#29393D"/>
<defs>
<linearGradient id="paint0_linear_105_5" x1="82.6086" y1="0.447269" x2="14.1751" y2="15.1707" gradientUnits="userSpaceOnUse">
<stop offset="0.037514" stop-color="#00A7CC" stop-opacity="0.03"/>
<stop offset="0.192462" stop-color="#00A7CC" stop-opacity="0.65"/>
<stop offset="0.453284" stop-color="#00A7CC"/>
<stop offset="0.746842" stop-color="#00A7CC" stop-opacity="0.72"/>
<stop offset="1" stop-color="#00A7CC" stop-opacity="0"/>
</linearGradient>
</defs>
</svg>
