<svg width="102" height="37" viewBox="0 0 102 37" fill="none" xmlns="http://www.w3.org/2000/svg">
<path d="M9.30146 13.0791C5.50851 12.1951 0 19.011 0 19.011L2.69142 24.0384C2.69142 24.0384 4.90278 20.8265 8.70073 21.7217C11.5052 22.3827 13.0291 28.269 15.8501 27.9904C18.4009 27.7385 23 23.2 23 23.2V14.5C23 14.5 19.3716 18.7622 16.8293 19.011C14.0158 19.2863 12.0988 13.7311 9.30146 13.0791Z" fill="url(#paint0_linear_105_5)" fill-opacity="0.5"/>
<path d="M29.92 25.896C29.8667 25.944 29.7733 25.984 29.64 26.016C29.5067 26.048 29.368 26.064 29.224 26.064C29.0427 26.064 28.904 26.04 28.808 25.992C28.712 25.944 28.6373 25.8613 28.584 25.744L27.992 24.416C27.9013 24.2187 27.8053 24.0853 27.704 24.016C27.6027 23.9467 27.4533 23.912 27.256 23.912H26.84V26H25.608V20.4H27.512C28.2267 20.4 28.776 20.552 29.16 20.856C29.544 21.16 29.736 21.5947 29.736 22.16C29.736 22.5067 29.6507 22.8053 29.48 23.056C29.3147 23.3013 29.072 23.488 28.752 23.616C28.896 23.7653 29.016 23.9467 29.112 24.16L29.92 25.896ZM27.432 23.048C27.8053 23.048 28.0747 22.9787 28.24 22.84C28.4053 22.7013 28.488 22.4747 28.488 22.16C28.488 21.8453 28.4053 21.6187 28.24 21.48C28.0747 21.336 27.8053 21.264 27.432 21.264H26.84V23.048H27.432ZM30.9012 20.4H32.1332V26H30.9012V20.4ZM37.8581 20.4C37.7567 21.504 37.5541 22.5147 37.2501 23.432C36.9461 24.3493 36.5327 25.2053 36.0101 26H34.9301C34.4127 25.216 34.0021 24.368 33.6981 23.456C33.3941 22.5387 33.1861 21.52 33.0741 20.4H34.3381C34.4341 21.3067 34.5781 22.128 34.7701 22.864C34.9621 23.6 35.1941 24.2213 35.4661 24.728C35.7381 24.2213 35.9701 23.6 36.1621 22.864C36.3541 22.128 36.4981 21.3067 36.5941 20.4H37.8581ZM42.1356 25.152C42.1356 25.4773 42.1063 25.7013 42.0476 25.824C41.989 25.9413 41.8796 26 41.7196 26H38.5436V20.4H42.0476V21.248H39.7756V22.688H41.6636V23.536H39.7756V25.152H42.1356ZM47.4122 25.896C47.3589 25.944 47.2655 25.984 47.1322 26.016C46.9989 26.048 46.8602 26.064 46.7162 26.064C46.5349 26.064 46.3962 26.04 46.3002 25.992C46.2042 25.944 46.1295 25.8613 46.0762 25.744L45.4842 24.416C45.3935 24.2187 45.2975 24.0853 45.1962 24.016C45.0949 23.9467 44.9455 23.912 44.7482 23.912H44.3322V26H43.1002V20.4H45.0042C45.7189 20.4 46.2682 20.552 46.6522 20.856C47.0362 21.16 47.2282 21.5947 47.2282 22.16C47.2282 22.5067 47.1429 22.8053 46.9722 23.056C46.8069 23.3013 46.5642 23.488 46.2442 23.616C46.3882 23.7653 46.5082 23.9467 46.6042 24.16L47.4122 25.896ZM44.9242 23.048C45.2975 23.048 45.5669 22.9787 45.7322 22.84C45.8975 22.7013 45.9802 22.4747 45.9802 22.16C45.9802 21.8453 45.8975 21.6187 45.7322 21.48C45.5669 21.336 45.2975 21.264 44.9242 21.264H44.3322V23.048H44.9242ZM54.6574 20.4C54.5294 21.5947 54.3694 22.6267 54.1774 23.496C53.9854 24.3653 53.732 25.2 53.4174 26H52.1214C51.8707 25.2533 51.6814 24.6453 51.5534 24.176C51.4307 23.7067 51.324 23.1973 51.2334 22.648C51.132 23.2453 51.0174 23.784 50.8894 24.264C50.7614 24.7387 50.58 25.3173 50.3454 26H49.0494C48.724 25.216 48.46 24.392 48.2574 23.528C48.0547 22.6587 47.8787 21.616 47.7294 20.4H48.9454C49.0574 21.4987 49.164 22.3387 49.2654 22.92C49.3667 23.496 49.5107 24.1067 49.6974 24.752C49.916 24.0853 50.0894 23.4827 50.2174 22.944C50.3454 22.4 50.516 21.552 50.7294 20.4H51.7054C51.9614 21.632 52.1534 22.512 52.2814 23.04C52.4094 23.5627 52.572 24.1307 52.7694 24.744C52.9507 24.1093 53.0867 23.504 53.1774 22.928C53.268 22.352 53.3667 21.5093 53.4734 20.4H54.6574ZM58.7413 26C58.6613 25.4293 58.5839 24.968 58.5093 24.616H56.3333C56.2586 24.968 56.1813 25.4293 56.1013 26H54.9013C55.1039 24.064 55.7386 22.1973 56.8053 20.4H58.0453C59.1066 22.1867 59.7386 24.0533 59.9413 26H58.7413ZM58.3173 23.736C58.0933 22.856 57.7946 22.048 57.4213 21.312C57.0479 22.048 56.7493 22.856 56.5253 23.736H58.3173ZM64.0465 25.152V26H60.7505V20.4H61.9825V25.152H64.0465ZM69.4041 25.96C69.2601 26.04 68.9934 26.08 68.6041 26.08C68.3054 26.08 68.1054 25.9947 68.0041 25.824L66.9481 24.096C66.8521 23.936 66.7721 23.824 66.7081 23.76C66.6494 23.696 66.5827 23.6533 66.5081 23.632C66.4334 23.6107 66.3214 23.6 66.1721 23.6H66.1161V26H64.8841V20.4H66.1161V22.784H66.4761L68.0361 20.4H69.3401L67.5081 23.08C67.7267 23.2347 67.9241 23.464 68.1001 23.768L69.4041 25.96ZM73.9379 20.4C74.6633 20.4 75.2153 20.5547 75.5939 20.864C75.9726 21.1733 76.1619 21.6267 76.1619 22.224C76.1619 22.8373 75.9673 23.312 75.5779 23.648C75.1939 23.984 74.6473 24.152 73.9379 24.152H73.4259V26H72.1939V20.4H73.9379ZM73.8579 23.24C74.2313 23.24 74.5006 23.16 74.6659 23C74.8313 22.84 74.9139 22.5813 74.9139 22.224C74.9139 21.872 74.8313 21.6187 74.6659 21.464C74.5006 21.3093 74.2313 21.232 73.8579 21.232H73.4259V23.24H73.8579ZM80.4678 26C80.3878 25.4293 80.3105 24.968 80.2358 24.616H78.0598C77.9851 24.968 77.9078 25.4293 77.8278 26H76.6278C76.8305 24.064 77.4651 22.1973 78.5318 20.4H79.7718C80.8331 22.1867 81.4651 24.0533 81.6678 26H80.4678ZM80.0438 23.736C79.8198 22.856 79.5211 22.048 79.1478 21.312C78.7745 22.048 78.4758 22.856 78.2518 23.736H80.0438ZM82.5731 20.4H83.8051V26H82.5731V20.4ZM89.6259 24.904C89.6259 25.0693 89.6313 25.264 89.6419 25.488C89.6526 25.6373 89.6579 25.736 89.6579 25.784C89.6579 25.928 89.5886 26 89.4499 26H88.4099V25.728C88.4099 25.4613 88.3059 25.1653 88.0979 24.84L86.3299 22.12V26H85.1139V20.4H86.2179C86.2873 20.4 86.3433 20.4107 86.3859 20.432C86.4339 20.448 86.4793 20.4907 86.5219 20.56L88.4099 23.432V20.4H89.6259V24.904ZM94.3395 20.4C94.3608 20.528 94.3715 20.6453 94.3715 20.752C94.3715 20.9333 94.3422 21.0667 94.2835 21.152C94.2248 21.2373 94.1315 21.28 94.0035 21.28H92.9315V26H91.7155V21.28H90.3075V20.4H94.3395ZM97.1169 26.08C96.4609 26.08 95.9463 25.968 95.5729 25.744C95.1996 25.52 95.0129 25.2133 95.0129 24.824C95.0129 24.6373 95.0903 24.4907 95.2449 24.384C95.4049 24.2773 95.6289 24.2213 95.9169 24.216C95.9489 24.5307 96.0689 24.7733 96.2769 24.944C96.4903 25.1147 96.7756 25.2 97.1329 25.2C97.7889 25.2 98.1169 24.9573 98.1169 24.472C98.1169 24.28 98.0263 24.1227 97.8449 24C97.6689 23.8773 97.3596 23.752 96.9169 23.624C96.2876 23.448 95.8263 23.224 95.5329 22.952C95.2396 22.6747 95.0929 22.32 95.0929 21.888C95.0929 21.4027 95.2796 21.0213 95.6529 20.744C96.0316 20.4613 96.5463 20.32 97.1969 20.32C97.7196 20.32 98.1676 20.4453 98.5409 20.696C98.9143 20.9413 99.1703 21.2853 99.3089 21.728C99.2183 21.8187 99.0929 21.8987 98.9329 21.968C98.7729 22.0373 98.6316 22.072 98.5089 22.072C98.4129 22.072 98.3383 22.0533 98.2849 22.016C98.2316 21.9733 98.1756 21.896 98.1169 21.784C98.0103 21.576 97.8876 21.4267 97.7489 21.336C97.6103 21.2453 97.4263 21.2 97.1969 21.2C96.6263 21.2 96.3409 21.3893 96.3409 21.768C96.3409 21.9173 96.3703 22.04 96.4289 22.136C96.4876 22.2267 96.5889 22.312 96.7329 22.392C96.8769 22.4667 97.0956 22.552 97.3889 22.648C97.9223 22.824 98.3303 22.9867 98.6129 23.136C98.8956 23.28 99.0929 23.4373 99.2049 23.608C99.3223 23.7787 99.3809 23.9893 99.3809 24.24C99.3809 24.6027 99.2849 24.9227 99.0929 25.2C98.9063 25.4773 98.6423 25.6933 98.3009 25.848C97.9596 26.0027 97.5649 26.08 97.1169 26.08Z" fill="#29393D"/>
<defs>
<linearGradient id="paint0_linear_105_5" x1="24.6829" y1="13" x2="1.82619" y2="15.5695" gradientUnits="userSpaceOnUse">
<stop offset="0.114204" stop-color="#2FD0C6" stop-opacity="0"/>
<stop offset="0.262773" stop-color="#2FD0C6"/>
<stop offset="0.453284" stop-color="#2FD0C6"/>
<stop offset="0.746842" stop-color="#2FD0C6"/>
<stop offset="1" stop-color="#2FD0C6" stop-opacity="0"/>
</linearGradient>
</defs>
</svg>
